<svg width="467" height="536" viewBox="0 0 467 536" fill="none" xmlns="http://www.w3.org/2000/svg" style="width: 100%; height: 100%;">
<g clip-path="url(#clip0_35_833)">
<path d="M140.106 532.797L0.75 533.293C0.75 533.293 9.651 478.69 13.797 453.719C58.241 452.908 110.746 454.613 149.912 454.613C153.722 457.202 140.105 532.797 140.105 532.797H140.106Z" fill="#00ADEF" stroke="#010101" stroke-width="1.5" stroke-linecap="round" stroke-linejoin="round"></path>
<path d="M7.14795 492.756C12.5579 485.897 22.318 483.7 30.929 485.17C34.39 485.761 37.8849 486.863 41.3419 486.251C47.9819 485.075 51.8489 478.279 54.7659 472.2C57.6829 466.121 65.8879 454.942 74.4789 453.739" stroke="#010101" stroke-width="1.5" stroke-linecap="round" stroke-linejoin="round"></path>
<path d="M34.075 533.174C36.384 528.761 39.7519 521.81 43.3209 518.336C48.5169 513.279 55.671 510.914 62.424 508.272C73.165 504.07 83.677 498.663 91.803 490.477C101.385 480.825 107.494 466.767 112.891 454.283" stroke="#010101" stroke-width="1.5" stroke-linecap="round" stroke-linejoin="round"></path>
<path d="M90.4961 532.8C99.6921 509.508 124.425 488.588 149.45 487.66" stroke="#010101" stroke-width="1.5" stroke-linecap="round" stroke-linejoin="round"></path>
<path d="M121.43 532.8C124.031 529.506 130.129 516.864 144.041 518.114" stroke="#010101" stroke-width="1.5" stroke-linecap="round" stroke-linejoin="round"></path>
<path d="M278.739 534.175C239.018 534.199 182.775 533.1 135.631 532.768C142.343 495.81 149.681 456.738 155.545 421.165C199.55 421.165 248.789 420.989 295.149 420.961C292.932 456.579 287.614 497.912 278.738 534.175H278.739Z" fill="#00ADEF" stroke="#010101" stroke-width="1.5" stroke-linecap="round" stroke-linejoin="round"></path>
<path d="M18.79 347.197C18.79 347.197 180.316 267.438 249.327 232.093C259.993 244.786 270.659 257.479 281.325 270.172C285.388 275.008 289.452 279.843 293.484 283.674C333.407 261.404 373.957 240.255 415.382 219.769C412.823 211.728 410.598 207.899 406.473 199.778C427.622 200.8 443.302 201.676 465.449 202.328C454.29 221.894 448.631 236.96 433.193 257.154C429.534 249.957 427.875 243.761 422.549 237.934C377.953 260.861 331.094 284.247 286.876 309.099C273.513 292.16 257.656 273.446 245.135 257.573C193.291 282.094 141.088 307.967 90.535 335.05C70.397 345.839 28.455 366.442 27.958 366.338C27.339 366.208 18.791 347.196 18.791 347.196L18.79 347.197Z" fill="#FF8B37" stroke="#010101" stroke-width="1.5" stroke-linecap="round" stroke-linejoin="round"></path>
<path d="M407.429 534.787C418.802 466.546 430.4 389.914 443.221 321.93C397.476 321.93 353.743 321.859 318.943 321.859C302.342 385.881 286.807 464.492 275.909 534.215C314.932 534.215 365.861 534.891 407.429 534.787Z" fill="#00ADEF" stroke="#010101" stroke-width="1.5" stroke-linecap="round" stroke-linejoin="round"></path>
<path d="M301.31 394.614C305.162 381.098 314.968 371.154 326.55 363.193C335.138 357.289 345.204 353.604 353.181 346.897C361.157 340.19 366.747 331.272 362.27 321.86" stroke="#010101" stroke-width="1.5" stroke-linecap="round" stroke-linejoin="round"></path>
<path d="M396.714 321.911C400.339 330.996 397.469 339.218 393.711 348.249C389.952 357.28 384.621 365.644 381.549 374.931C376.698 389.602 377.969 406.251 385.261 419.875C392.553 433.498 405.829 443.845 420.891 447.296" stroke="#010101" stroke-width="1.5" stroke-linecap="round" stroke-linejoin="round"></path>
<path d="M420.891 321.925C415.999 335.577 412.151 345.991 409.947 360.324C409.242 364.907 408.845 369.745 410.566 374.051C413.588 381.611 421.998 385.252 429.611 388.139" stroke="#010101" stroke-width="1.5" stroke-linecap="round" stroke-linejoin="round"></path>
<path d="M291.993 440.796C301.798 434.126 310.456 425.774 317.475 416.216C323.244 408.36 328.204 399.412 336.502 394.299C337.581 393.634 338.756 393.029 340.023 392.983C341.474 392.93 342.848 393.618 344.059 394.419C350.386 398.601 353.907 406.158 354.677 413.704C355.447 421.25 353.778 428.835 351.546 436.084C347.021 450.778 340.164 470.682 335.637 485.375C331.109 500.068 330.269 520.022 335.427 534.505" stroke="#010101" stroke-width="1.5" stroke-linecap="round" stroke-linejoin="round"></path>
<path d="M283.09 494.881C289.137 485.04 301.565 464.582 309.93 469.107C314.339 471.492 314.75 477.821 314.532 482.83C313.862 498.22 306.296 519.002 309.592 534.049" stroke="#010101" stroke-width="1.5" stroke-linecap="round" stroke-linejoin="round"></path>
<path d="M344.82 534.26C355.797 518.533 367.029 502.536 382.298 490.93C386.685 487.596 391.484 484.606 396.85 483.353C400.121 482.589 403.784 482.557 406.595 484.397C409.741 486.458 411.139 490.485 411.014 494.244C410.889 498.003 409.986 500.328 408.575 503.814C404.358 514.239 399.908 524.569 395.231 534.796C375.64 534.796 360.812 534.26 344.82 534.26Z" fill="#55D087" stroke="#010101" stroke-width="1.5" stroke-linecap="round" stroke-linejoin="round"></path>
<path d="M408.784 511.11C412.331 505.966 416.572 501.077 422.135 498.232C425.588 496.466 430.182 495.711 433.06 498.31C434.286 499.417 435.003 500.976 435.534 502.54C439.205 513.35 435.337 523.755 431.421 534.798C416.393 534.798 404.715 534.796 395.23 534.796C396.462 531.524 405.237 516.253 408.784 511.11Z" fill="#55D087" stroke="#010101" stroke-width="1.5" stroke-linecap="round" stroke-linejoin="round"></path>
<path d="M426.26 502.817C422.357 513.989 418.646 524.068 413.649 534.796" stroke="#010101" stroke-width="1.5" stroke-linecap="round" stroke-linejoin="round"></path>
<path d="M398.399 489.826C388.555 504.157 379.335 518.916 370.774 534.048" stroke="#010101" stroke-width="1.5" stroke-linecap="round" stroke-linejoin="round"></path>
<path d="M383.82 493.408C384.75 498.387 385.605 503.379 386.383 508.384" stroke="#010101" stroke-width="1.5" stroke-linecap="round" stroke-linejoin="round"></path>
<path d="M379.672 520.115C387.096 517.288 394.52 514.461 401.943 511.634" stroke="#010101" stroke-width="1.5" stroke-linecap="round" stroke-linejoin="round"></path>
<path d="M414.39 510.821C416.395 513.04 418.21 515.431 419.806 517.96" stroke="#010101" stroke-width="1.5" stroke-linecap="round" stroke-linejoin="round"></path>
<path d="M417.367 526.213C422.052 523.803 426.737 521.392 431.422 518.982" stroke="#010101" stroke-width="1.5" stroke-linecap="round" stroke-linejoin="round"></path>
<path d="M175.78 404.38L175.043 420.961C195.71 419.25 215.933 421.328 236.667 420.961C236.695 418.21 235.468 415.006 231.548 413.464C227.654 411.932 223.21 410.811 219.166 409.734C216.881 409.126 214.388 408.371 213.109 406.383C212.062 404.755 211.954 402.46 210.365 401.354C209.431 400.704 208.218 400.655 207.08 400.639C196.484 400.489 185.877 401.127 175.779 404.379L175.78 404.38Z" fill="#010101" stroke="#010101" stroke-width="1.5" stroke-linecap="round" stroke-linejoin="round"></path>
<path d="M58.138 418.263C54.79 424.148 51.662 430.158 47.999 436.124C56.54 444.9 68.757 448.214 79.992 453.809C87.637 453.809 94.686 454.12 103.762 454.12C102.035 447.376 92.213 444.965 87.372 439.535C88.788 434.957 87.953 436.63 89.369 432.052C89.505 431.612 89.642 431.146 89.535 430.699C89.403 430.148 88.934 429.752 88.481 429.411C84.061 426.085 78.75 424.203 73.53 422.371C69.01 420.784 64.489 419.197 58.138 418.262V418.263Z" fill="#010101" stroke="#010101" stroke-width="1.5" stroke-linecap="round" stroke-linejoin="round"></path>
<path d="M86.247 211.794C117.278 214.804 146.515 217.695 177.704 217.746C177.213 231.84 174.7 245.863 169.931 259.985C185.122 269.745 198.216 283.572 204.823 300.376C207.689 307.667 208.524 315.571 209.333 323.363C212.155 350.559 217.976 374.755 220.006 402.666C203.869 405.216 187.613 407.005 172.19 406.224C170.957 373.896 167.806 343.142 163.489 309.341C161.014 308.637 157.409 305.498 151.643 302.411C138.145 355.902 120.448 394.959 104.297 437.888C95.788 433.974 74.634 432.598 50.165 417.613C75.196 367.18 96.693 326.389 114.475 275.742C103.58 267.294 96.694 260.547 89.391 248.853C87.4 245.666 78.916 232.181 86.246 211.795L86.247 211.794Z" fill="white" stroke="#010101" stroke-width="1.5" stroke-linecap="round" stroke-linejoin="round"></path>
<path d="M132.325 73.9239C132.29 81.6649 131.292 82.8899 131.981 90.5999C129.283 91.4159 126.793 91.4639 124.221 92.4989C123.936 99.7239 124.054 108.259 126.151 115.179C128.249 122.099 132.752 128.604 139.358 131.544C142.613 132.992 146.649 133.436 149.578 131.406C151.655 129.966 152.811 127.556 153.754 125.211C158.135 114.317 161.221 101.101 160.511 89.4219C158.456 89.4219 154.686 89.5809 153.975 89.9119C152.949 83.8329 153.944 82.3989 153.65 75.0439C147.949 74.4749 142.293 73.4639 132.324 73.9229L132.325 73.9239Z" fill="white" stroke="#010101" stroke-width="1.5" stroke-linecap="round" stroke-linejoin="round"></path>
<path d="M154.834 43.982C154.514 39.791 152.117 30.501 149.867 28.538C147.279 26.28 143.39 26.1 140.108 27.115C136.826 28.13 133.971 30.155 131.067 31.988C127.718 34.102 124.479 34.497 120.882 36.155C117.801 37.575 114.447 38.981 112.625 41.843C111.805 43.132 111.364 44.632 111.136 46.142C110.734 48.805 110.974 51.563 111.829 54.117C113.673 59.623 117.386 63.779 122.766 67.702C125.145 68.753 127.369 70.155 129.816 72.253C134.702 80.724 138.909 84.116 148.175 83.695C169.94 82.706 166.179 65.158 163.518 59.929C162.08 57.104 160.424 54.389 158.358 51.467C156.223 51.636 153.875 51.747 152.163 50.46C150.755 49.402 150.086 47.499 150.383 45.764C150.68 44.029 151.878 42.503 154.834 43.983V43.982Z" fill="#010101" stroke="#010101" stroke-width="1.5" stroke-linecap="round" stroke-linejoin="round"></path>
<path d="M136.697 64.5249C135.264 62.4859 132.572 58.0199 132.209 54.2809C131.932 51.4219 131.692 48.9299 132.878 46.3149C134.064 43.6999 136.681 41.5589 139.549 41.7039C140.935 41.7739 142.332 42.3529 143.674 41.9989C145.531 41.5089 146.576 39.4249 148.382 38.7719C149.856 38.2399 151.553 38.8089 152.736 39.8379C153.919 40.8669 154.678 42.2879 155.351 43.7039C157.116 47.4179 158.461 51.3319 159.355 55.3459C159.451 55.7769 159.541 56.2279 159.431 56.6559C159.291 57.1979 158.855 57.6069 158.416 57.9539C156.734 59.2849 154.743 60.1569 152.777 61.0139C149.509 62.4389 146.241 63.8639 142.972 65.2889C141.997 65.7139 140.989 66.1459 139.926 66.1539C138.863 66.1619 137.563 65.7599 136.695 64.5259L136.697 64.5249Z" fill="white" stroke="#010101" stroke-width="1.5" stroke-linecap="round" stroke-linejoin="round"></path>
<path d="M130.771 73.2169C128.947 73.9449 126.876 74.6639 125.083 73.8639C124.086 73.4189 123.327 72.5469 122.822 71.5789C121.996 69.9939 121.801 68.0549 122.459 66.3939C123.117 64.7329 124.674 63.4169 126.904 63.4279C128.061 66.7619 129.278 70.0759 130.771 73.2169Z" fill="white" stroke="#010101" stroke-width="1.5" stroke-linecap="round" stroke-linejoin="round"></path>
<path d="M114.792 276.208C127.31 287.107 141.07 296.579 155.72 304.383" stroke="#010101" stroke-width="1.5" stroke-linecap="round" stroke-linejoin="round"></path>
<path d="M142.838 237.719C152.34 245.938 160.195 252.045 169.932 259.985" stroke="#010101" stroke-width="1.5" stroke-linecap="round" stroke-linejoin="round"></path>
<path d="M96.1411 434.338C111.655 389.296 128.524 344.721 146.719 300.694" stroke="#010101" stroke-width="1.5" stroke-linecap="round" stroke-linejoin="round"></path>
<path d="M126.588 93.77C131.072 99.37 134.306 105.846 137.506 112.268C139.096 115.459 140.686 118.649 142.471 121.768C148.176 111.826 153.87 101.878 157.885 91.849C161.146 96.23 162.463 101.73 163.447 107.102C170.074 143.248 165.069 180.395 158.489 217.566C140.956 216.134 109.032 214.08 104.979 213.592C106.871 175.495 107.128 139.733 120.734 104.098C122.514 99.437 124.508 94.809 126.588 93.77Z" fill="#010101" stroke="#010101" stroke-width="1.5" stroke-linecap="round" stroke-linejoin="round"></path>
<path d="M95.1061 214.658C94.2931 224.252 93.5811 234.413 97.8981 243.019C100.245 247.699 103.923 251.561 107.659 255.228C124.613 271.872 143.929 286.106 164.615 297.917C170.704 301.394 174.757 307.577 175.529 314.546L185.718 406.538" stroke="#010101" stroke-width="1.5" stroke-linecap="round" stroke-linejoin="round"></path>
<path d="M75.5549 159.535C77.8689 145.438 80.2159 131.22 85.3959 117.907C87.0409 113.68 89.0339 109.462 92.2759 106.291C95.2409 103.391 99.0629 101.547 102.885 99.936C111.319 96.38 120.1 93.71 128.073 91.351C129.79 129.32 126.863 167.505 119.233 204.739C117.452 213.428 115.139 222.576 108.373 228.774C102.997 229.126 97.6099 228.506 92.2589 227.887C84.6649 227.009 77.0709 226.131 69.7129 225.233C74.9419 216.593 75.3019 215.751 81.2199 204.593C84.0479 199.262 84.9609 188.35 83.5479 182.483C81.3059 173.167 74.1159 168.304 75.5549 159.535Z" fill="#00ADEF" stroke="#010101" stroke-width="1.5" stroke-linecap="round" stroke-linejoin="round"></path>
<path d="M156.385 89.56C155.7 106.509 154.954 125.458 154.27 142.407C153.902 151.51 153.534 160.618 152.69 169.69C150.893 189.011 146.951 208.06 143.002 227.977C156.575 229.255 170.39 230.522 184.032 227.323C182.807 209.68 181.593 191.819 184.749 174.417C186.169 166.587 188.463 158.929 189.693 151.067C190.491 145.966 190.852 140.739 192.622 135.889C193.567 133.299 194.907 130.844 195.546 128.162C196.418 124.503 195.931 120.674 195.44 116.945C194.598 110.547 192.396 105.612 188.646 100.361C185.066 95.347 179.246 92.237 173.211 91C167.176 89.763 161.867 89.111 156.385 89.56Z" fill="#00ADEF" stroke="#010101" stroke-width="1.5" stroke-linecap="round" stroke-linejoin="round"></path>
<path d="M172.018 152.614C175.15 153.6 176.084 153.46 178.25 153.102C179.063 152.967 180.041 152.327 180.583 152.948C180.967 153.388 180.95 154.076 180.683 154.595C180.416 155.114 179.945 155.497 179.466 155.831C178.808 156.29 178.109 156.69 177.38 157.025" fill="white"></path>
<path d="M172.018 152.614C175.15 153.6 176.084 153.46 178.25 153.102C179.063 152.967 180.041 152.327 180.583 152.948C180.967 153.388 180.95 154.076 180.683 154.595C180.416 155.114 179.945 155.497 179.466 155.831C178.808 156.29 178.109 156.69 177.38 157.025" stroke="#010101" stroke-width="1.5" stroke-linecap="round" stroke-linejoin="round"></path>
<path d="M75.979 158.837C81.907 160.215 86.959 159.609 93.043 159.761C96.424 159.846 99.936 159.67 102.947 158.129C103.132 161.194 103.048 164.276 102.71 167.468C121.636 162.269 142.572 155.514 162.279 151.71C164.978 151.189 167.851 150.761 170.41 151.766C172.505 152.589 174.128 154.278 175.564 156.012C180.811 162.348 184.654 172.772 182.951 173.464C181.447 174.469 179.781 172.354 178.67 170.258C177.626 168.289 173.559 162.406 172.425 159.672C173.173 160.32 176.301 166.11 176.634 167.041C176.967 167.972 176.668 169.21 175.747 169.572C174.858 169.921 173.378 168.83 172.715 168.142C171.936 167.333 168.888 162.6 168.53 161.535C168.91 162.307 171.99 167.329 172.371 168.1C172.644 168.654 173.174 169.237 173.153 169.855C173.132 170.473 172.92 171.598 171.768 171.661C171.255 171.689 170.631 171.314 170.277 170.941C169.186 169.792 165.341 164.809 164.689 163.365C165.383 164.422 168.873 169.23 169.237 170.44C169.362 170.856 169.844 173.58 167.758 173.065C167.479 172.996 167.204 172.931 166.961 172.778C165.344 171.764 162.843 169.319 161.845 167.987C119.585 187.867 107.715 196.789 85.738 193.405C83.916 193.124 82.055 192.691 80.565 191.604C77.594 189.437 74.116 186.456 74.116 180.687C74.116 172.681 74.701 168.788 75.978 158.836L75.979 158.837Z" fill="white" stroke="#010101" stroke-width="1.5" stroke-linecap="round" stroke-linejoin="round"></path>
<path d="M160.512 165.207L163.18 169.538Z" fill="white"></path>
<path d="M160.512 165.207L163.18 169.538" stroke="#010101" stroke-width="1.5" stroke-linecap="round" stroke-linejoin="round"></path>
<path d="M107.966 130.554C105.757 139.764 104.091 149.103 102.978 158.509Z" fill="white"></path>
<path d="M107.966 130.554C105.757 139.764 104.091 149.103 102.978 158.509" stroke="#010101" stroke-width="1.5" stroke-linecap="round" stroke-linejoin="round"></path>
<path d="M119.73 93.678C117.104 100.122 114.137 106.427 110.846 112.559C113.211 113.725 115.733 114.569 118.323 115.061C116.451 117.5 114.168 119.623 111.484 121.575C118.698 130.014 123.004 140.618 126.492 151.159" stroke="#010101" stroke-width="1.5" stroke-linecap="round" stroke-linejoin="round"></path>
<path d="M175.435 180.948C164.023 181.012 152.61 181.076 141.198 181.139C140.626 182.268 140.26 183.5 140.124 184.759C140.09 185.076 140.081 185.431 140.289 185.673C140.522 185.943 140.927 185.962 141.283 185.96C153.439 185.895 165.494 186.098 177.642 185.66C177.924 184.389 177.025 181.464 175.435 180.948Z" fill="white" stroke="#010101" stroke-width="1.5" stroke-linecap="round" stroke-linejoin="round"></path>
<path d="M250.416 183.454C257.622 159.73 261.607 150.504 267.971 129.553C238.163 129.553 211.217 129.564 186.465 129.564C182.66 150.511 179.09 163.617 173.167 185.875C205.122 184.157 215.709 185.32 250.416 183.454Z" fill="white" stroke="#010101" stroke-width="1.5" stroke-linecap="round" stroke-linejoin="round"></path>
<path d="M214.145 151.554C213.393 152.453 212.806 153.494 212.562 154.64C211.798 158.223 213.929 162.202 217.334 163.553C220.739 164.904 225.018 163.467 226.918 160.335C227.572 159.257 227.958 158.03 228.136 156.782C228.287 155.726 228.15 154.663 227.909 153.624C226.262 146.519 217.421 147.639 214.144 151.554H214.145Z" fill="white" stroke="#010101" stroke-width="1.5" stroke-linecap="round" stroke-linejoin="round"></path>
<path d="M182.749 197.802C186.433 199.607 193.19 199.014 198.574 198.321C213.677 196.379 228.563 192.76 242.871 187.551C243.11 187.464 243.353 187.374 243.552 187.216C244.519 186.447 243.608 184.71 242.383 184.545C241.158 184.38 240.029 185.164 239.042 185.908C240.629 183.693 241.686 178.715 240.315 178.122C238.429 177.666 236.159 183.108 235.635 186.262C236.367 183.784 239.63 177.241 237.496 176.591C234.689 175.564 232.109 183.558 231.451 186.681C231.84 184.932 232.978 181.933 233.367 180.184C233.567 179.284 233.682 178.147 232.921 177.626C231.826 176.875 230.295 179.023 229.704 180.212C228.739 182.151 228.025 184.591 227.06 186.53C227.706 184.604 227.853 183.427 228.499 181.501C228.846 180.467 228.178 179.172 227.112 178.946C226.394 178.793 225.698 179.4 225.362 180.053C224.197 182.32 224.597 181.922 223.765 184.493C208.867 184.493 195.233 185.483 182.414 185.483C182.009 185.483 182.461 197.662 182.748 197.803L182.749 197.802Z" fill="white" stroke="#010101" stroke-width="1.5" stroke-linecap="round" stroke-linejoin="round"></path>
<path d="M460.504 350.049C459.293 349.885 458.011 350.471 457.343 351.494C456.675 352.517 456.653 353.926 457.289 354.97C458.423 356.828 461.532 356.916 462.819 355.16C464.106 353.404 463.173 350.41 460.504 350.049Z" fill="#010101"></path>
<path d="M90.6769 295.913C90.1229 295.838 89.5379 296.106 89.2319 296.574C88.9259 297.042 88.9159 297.685 89.2069 298.162C89.7249 299.011 91.1459 299.051 91.7339 298.249C92.3219 297.447 91.8969 296.078 90.6769 295.913Z" fill="#010101"></path>
<path d="M357.491 187.72C356.568 187.595 355.592 188.041 355.083 188.821C354.574 189.601 354.557 190.673 355.042 191.468C355.906 192.884 358.274 192.95 359.254 191.612C360.234 190.274 359.523 187.994 357.491 187.719V187.72Z" fill="#010101"></path>
<path d="M159.813 89.913C163.059 94.85 166.09 99.927 168.895 105.127C167.19 106.986 165.148 108.536 162.893 109.69C165.017 111.66 167.495 113.246 169.731 114.499C163.447 125.736 158.167 137.534 153.976 149.707" stroke="#010101" stroke-width="1.5" stroke-linecap="round" stroke-linejoin="round"></path>
<path d="M223.47 184.517C221.884 184.765 220.242 185.034 218.908 185.927C217.446 186.905 216.535 188.514 215.858 190.137" fill="white"></path>
<path d="M223.47 184.517C221.884 184.765 220.242 185.034 218.908 185.927C217.446 186.905 216.535 188.514 215.858 190.137" stroke="#010101" stroke-width="1.5" stroke-linecap="round" stroke-linejoin="round"></path>
<path d="M150.239 51.0609L155.714 57.2339L152.049 59.1919" fill="white"></path>
<path d="M150.239 51.0609L155.714 57.2339L152.049 59.1919" stroke="#010101" stroke-width="1.5" stroke-linecap="round" stroke-linejoin="round"></path>
<path d="M324.717 34.21C317.626 54.642 319.841 78.291 334.906 95.156C349.972 112.022 378.831 119.811 400.713 110.068C422.967 100.159 432.324 75.775 429.458 54.217C427.01 35.797 416.583 17.701 398.97 7.19596C381.358 -3.30904 338.359 -5.10204 324.716 34.209L324.717 34.21Z" fill="#FF8B37" stroke="#010101" stroke-width="1.5" stroke-linecap="round" stroke-linejoin="round"></path>
<path d="M338.859 40.719C333.747 55.449 335.343 72.499 346.205 84.658C357.067 96.817 377.873 102.433 393.648 95.409C409.692 88.265 416.437 70.686 414.372 55.144C412.607 41.864 405.09 28.818 392.392 21.244C379.694 13.67 348.695 12.378 338.859 40.719Z" fill="white" stroke="#010101" stroke-width="1.5" stroke-linecap="round" stroke-linejoin="round"></path>
<path d="M352.516 47.008C349.315 56.233 350.314 66.91 357.117 74.525C363.919 82.14 376.949 85.657 386.829 81.258C396.877 76.784 401.101 65.775 399.807 56.041C398.702 47.724 393.994 39.554 386.042 34.811C378.09 30.068 358.676 29.259 352.516 47.008Z" fill="#FF8B37" stroke="#010101" stroke-width="1.5" stroke-linecap="round" stroke-linejoin="round"></path>
<path d="M366.297 53.3509C365.024 57.0199 365.421 61.2679 368.127 64.2959C370.833 67.3239 376.016 68.7239 379.945 66.9739C383.942 65.1949 385.622 60.8149 385.107 56.9439C384.667 53.6359 382.795 50.3859 379.632 48.4989C376.469 46.6119 368.747 46.2899 366.297 53.3499V53.3509Z" fill="white" stroke="#010101" stroke-width="1.5" stroke-linecap="round" stroke-linejoin="round"></path>
<path d="M420.116 28.406C420.557 26.317 421.334 23.053 421.775 20.964C421.847 20.624 421.923 20.273 422.126 19.991C422.324 19.716 422.623 19.535 422.914 19.36C426.399 17.273 429.884 15.187 433.368 13.1C432.876 15.468 432.47 17.854 432.151 20.252C434.268 20.601 436.385 20.95 438.503 21.299C435.294 24.372 427.892 29.315 427.892 29.315C427.892 29.315 422.34 28.996 420.116 28.406Z" fill="#00ADEF" stroke="#010101" stroke-width="1.5" stroke-linecap="round" stroke-linejoin="round"></path>
<path d="M378.061 58.1439C394.341 46.5379 410.621 34.9319 426.901 23.3259" stroke="#010101" stroke-width="1.5" stroke-linecap="round" stroke-linejoin="round"></path>
<path d="M377.776 56.463C377.607 57.313 377.449 58.245 377.864 59.007C378.22 59.661 378.934 60.045 379.651 60.246" stroke="#010101" stroke-width="1.5" stroke-linecap="round" stroke-linejoin="round"></path>
<path d="M455.06 459.86L459.593 465.624" stroke="#010101" stroke-width="1.5" stroke-linecap="round" stroke-linejoin="round"></path>
<path d="M18.7899 398.134L13.0859 402.479" stroke="#010101" stroke-width="1.5" stroke-linecap="round" stroke-linejoin="round"></path>
<path d="M281.771 398.857C281.217 398.782 280.632 399.05 280.326 399.518C280.02 399.986 280.01 400.629 280.301 401.106C280.819 401.955 282.24 401.995 282.828 401.193C283.416 400.391 282.99 399.022 281.77 398.857H281.771Z" fill="#010101"></path>
</g>
<defs>
<clipPath id="clip0_35_833">
<rect width="466.199" height="535.548" fill="white"></rect>
</clipPath>
</defs>
</svg>