<svg id="Layer_2" data-name="Layer 2" xmlns="http://www.w3.org/2000/svg" viewBox="0 0 1142.441 922.952" style="width: 100%; height: 100%;">
  <g id="Layer_2-2" data-name="Layer 2">
    <g>
      <g>
        <g>
          <g>
            <ellipse cx="416.343" cy="111.003" rx="31.227" ry="20.363" transform="translate(176.447 468.932) rotate(-71.097)" fill="#f4f4f4"></ellipse>
            <ellipse cx="388.27" cy="83.393" rx="15.05" ry="23.003" transform="translate(.033 166.94) rotate(-24.266)" fill="#f4f4f4"></ellipse>
          </g>
          <path d="m383.392,131.283h40.533c7.419,0,13.442,6.023,13.442,13.442v18.441c0,7.419-6.023,13.442-13.442,13.442h-40.533v-45.326h0Z" fill="#f4f4f4"></path>
          <g fill="none" opacity=".05">
            <path d="m383.392,131.283h40.533c7.419,0,13.442,6.023,13.442,13.442v18.441c0,7.419-6.023,13.442-13.442,13.442h-40.533v-45.326h0Z" fill="#292a2e"></path>
          </g>
          <g fill="none" opacity=".05">
            <path d="m432.19,99.992c-.017,0-.033,0-.051-.003-.166-.017-.312-.115-.391-.263-.208-.393-.104-.823-.028-1.138.233-.979.171-2.049-.168-2.953-.097-.258.035-.546.294-.644.257-.096.547.034.644.294.326.872.439,1.871.329,2.826.599-.54,1.25-.991,1.928-1.332.245-.124.546-.026.671.222.124.246.025.547-.222.671-.96.483-1.865,1.223-2.62,2.138-.096.115-.237.182-.386.182Z" fill="#292a2e"></path>
            <path d="m417.031,88.087c-.064,0-.129-.013-.19-.038-.409-.168-.6-.569-.738-.861-.43-.908-1.142-1.688-1.961-2.159-.239-.138-.322-.443-.185-.683.138-.24.444-.321.683-.185.793.456,1.5,1.146,2.01,1.949.125-.808.345-1.582.653-2.287.111-.253.407-.365.658-.258.253.11.368.405.258.658-.438,1.003-.677,2.168-.688,3.368-.002.166-.085.32-.224.412-.083.055-.18.083-.276.083Z" fill="#292a2e"></path>
            <path d="m404.25,104.213c-.064,0-.129-.013-.189-.037-.408-.167-.598-.564-.735-.854-.435-.916-1.146-1.695-1.966-2.167-.239-.138-.322-.443-.185-.683.138-.24.444-.322.683-.185.793.456,1.5,1.146,2.011,1.95.123-.809.344-1.582.652-2.288.111-.253.406-.365.658-.258.253.11.368.405.258.658-.439,1.004-.677,2.168-.687,3.367,0,.166-.085.32-.224.412-.083.056-.18.084-.276.084Z" fill="#292a2e"></path>
            <path d="m417.818,101.775c-.064,0-.129-.013-.189-.037-.41-.168-.6-.567-.737-.859-.433-.911-1.145-1.69-1.964-2.162-.239-.138-.321-.444-.184-.684s.442-.32.684-.184c.791.456,1.498,1.146,2.009,1.949.124-.808.344-1.582.652-2.287.11-.253.408-.366.658-.258.253.11.368.405.258.658-.439,1.004-.677,2.168-.687,3.367,0,.166-.085.32-.224.412-.083.056-.18.084-.276.084Z" fill="#292a2e"></path>
            <path d="m426.448,115.871c-.078,0-.156-.019-.228-.055-.148-.076-.249-.221-.269-.386-.053-.441.196-.802.379-1.066.569-.826.893-1.844.9-2.812.002-.275.226-.496.5-.496h.004c.276.002.498.228.496.504-.008.939-.263,1.918-.712,2.77.755-.28,1.527-.457,2.284-.521.268-.021.518.18.54.456.023.275-.181.518-.456.54-1.065.09-2.171.437-3.198,1.003-.074.042-.158.062-.241.062Z" fill="#292a2e"></path>
            <path d="m405.394,124.559c-.069,0-.14-.015-.205-.044-.403-.182-.581-.588-.711-.885-.402-.921-1.091-1.723-1.896-2.22-.235-.146-.308-.454-.163-.688.146-.235.454-.305.688-.163.777.481,1.464,1.193,1.949,2.012.148-.803.392-1.569.722-2.266.119-.25.419-.353.667-.237.249.119.355.417.237.667-.47.988-.742,2.145-.789,3.344-.007.166-.096.318-.236.405-.081.05-.172.075-.264.075Z" fill="#292a2e"></path>
            <path d="m417.921,129.201c-.017,0-.034,0-.051-.003-.167-.017-.313-.116-.392-.264-.206-.391-.104-.819-.029-1.132.234-.986.172-2.056-.166-2.958-.098-.259.033-.547.292-.644.257-.099.547.034.644.292.327.872.44,1.872.33,2.828.599-.541,1.25-.992,1.928-1.333.245-.124.546-.026.671.222.124.246.025.547-.222.671-.959.483-1.864,1.223-2.619,2.139-.096.115-.237.182-.386.182Z" fill="#292a2e"></path>
          </g>
          <g fill="none" opacity=".05">
            <path d="m395.464,81.489c-.017,0-.033,0-.051-.003-.166-.017-.312-.115-.391-.263-.208-.393-.104-.823-.028-1.138.233-.979.171-2.049-.168-2.953-.097-.258.035-.546.294-.644.256-.097.546.035.644.294.326.872.439,1.871.329,2.826.599-.54,1.25-.991,1.928-1.332.245-.123.546-.026.671.222.124.246.025.547-.222.671-.96.483-1.865,1.223-2.62,2.138-.096.115-.237.182-.386.182Z" fill="#292a2e"></path>
            <path d="m384.953,70.296c-.064,0-.129-.013-.189-.037-.41-.168-.6-.567-.737-.859-.433-.911-1.145-1.69-1.964-2.162-.239-.138-.321-.444-.184-.684.139-.239.442-.32.684-.184.791.456,1.498,1.146,2.009,1.949.124-.808.344-1.582.652-2.287.111-.253.407-.366.658-.258.253.11.368.405.258.658-.439,1.004-.677,2.168-.687,3.367,0,.166-.085.32-.224.412-.083.056-.18.084-.276.084Z" fill="#292a2e"></path>
            <path d="m383.267,82.204c-.064,0-.129-.013-.19-.038-.409-.168-.6-.569-.738-.861-.43-.908-1.142-1.688-1.961-2.159-.239-.138-.322-.443-.185-.683.138-.24.445-.321.683-.185.793.456,1.5,1.146,2.01,1.949.125-.808.345-1.582.653-2.287.111-.253.407-.367.658-.258.253.11.368.405.258.658-.438,1.003-.677,2.168-.688,3.368-.002.166-.085.32-.224.412-.083.055-.18.083-.276.083Z" fill="#292a2e"></path>
            <path d="m391.897,96.301c-.078,0-.157-.019-.229-.056-.148-.076-.249-.221-.269-.387-.051-.439.198-.801.379-1.064.569-.826.894-1.844.902-2.812.003-.274.226-.495.5-.495h.005c.275.003.498.229.495.505-.009.939-.264,1.918-.713,2.769.756-.281,1.528-.458,2.285-.521.248-.025.517.181.539.457.023.274-.182.517-.457.539-1.062.088-2.167.436-3.197,1.003-.075.042-.158.062-.241.062Z" fill="#292a2e"></path>
            <path d="m381.44,93.196c-.395,0-.711-.24-.947-.419-.795-.603-1.774-.956-2.711-.985-.276-.009-.493-.24-.484-.516s.239-.504.516-.484c.913.029,1.856.309,2.675.782-.258-.781-.414-1.579-.459-2.358-.016-.275.194-.512.471-.527.308-.026.513.195.527.471.063,1.098.378,2.243.909,3.312.073.146.07.32-.009.464s-.224.239-.387.256c-.034.004-.068.006-.101.006Z" fill="#292a2e"></path>
          </g>
        </g>
        <g>
          <rect x="245.753" y="143.591" width="111.51" height="32" transform="translate(603.016 319.182) rotate(180)" fill="#f4f4f4"></rect>
          <rect x="245.753" y="143.591" width="111.51" height="32" transform="translate(603.016 319.182) rotate(180)" fill="#292a2e" opacity=".05"></rect>
          <rect x="260.728" y="143.591" width="14.612" height="32" transform="translate(536.067 319.182) rotate(180)" fill="#fff"></rect>
          <rect x="282.261" y="149.673" width="60.754" height="18.963" transform="translate(625.275 318.309) rotate(180)" fill="#fff"></rect>
        </g>
        <g>
          <rect x="219.165" y="111.621" width="109.978" height="32" transform="translate(548.308 255.243) rotate(-180)" fill="#f4f4f4"></rect>
          <rect x="299.963" y="111.621" width="14.411" height="32" transform="translate(614.337 255.243) rotate(-180)" fill="#292a2e" opacity=".05"></rect>
          <rect x="233.218" y="117.704" width="59.919" height="18.963" transform="translate(526.355 254.371) rotate(-180)" fill="#fff"></rect>
        </g>
        <g>
          <rect x="133.77" y="106.81" width="111.51" height="32" transform="translate(406.017 58.517) rotate(130.517)" fill="#f4f4f4"></rect>
          <rect x="160.472" y="132.258" width="14.612" height="32" transform="translate(389.487 117.03) rotate(130.517)" fill="#292a2e" opacity=".05"></rect>
          <rect x="166.048" y="104.585" width="60.754" height="18.963" transform="translate(410.751 38.847) rotate(130.517)" fill="#292a2e" opacity=".05"></rect>
        </g>
        <rect x="127.015" y="175.007" width="321.971" height="12.652" fill="#f4f4f4"></rect>
      </g>
      <g>
        <g>
          <rect x="512.87" y="1" width="453.17" height="527.791" rx="16.26" ry="16.26" fill="#fff"></rect>
          <path d="m949.78,529.791h-420.65c-9.517,0-17.26-7.743-17.26-17.26V17.26c0-9.517,7.743-17.26,17.26-17.26h420.65c9.517,0,17.26,7.743,17.26,17.26v495.271c0,9.517-7.743,17.26-17.26,17.26ZM529.13,2c-8.414,0-15.26,6.846-15.26,15.26v495.271c0,8.414,6.846,15.26,15.26,15.26h420.65c8.414,0,15.26-6.846,15.26-15.26V17.26c0-8.414-6.846-15.26-15.26-15.26h-420.65Z" fill="#292a2e"></path>
        </g>
        <circle id="gra7_p" cx="787.082" cy="71.105" r="9.747" fill="#E38524"></circle>
        <circle id="gra7_p-2" data-name="gra7_p" cx="787.082" cy="71.105" r="9.747" fill="#E38524"></circle>
        <circle id="gra7_p-3" data-name="gra7_p" cx="787.082" cy="120.789" r="9.747" fill="#292a2e"></circle>
        <circle id="gra7_p-4" data-name="gra7_p" cx="787.082" cy="170.473" r="9.747" fill="#E38524" opacity=".5"></circle>
        <circle id="gra7_p-5" data-name="gra7_p" cx="787.082" cy="220.157" r="9.747" fill="#E38524" opacity=".2"></circle>
        <g>
          <path d="m593.607,145.631c0,25.005,15.999,46.275,38.316,54.152l-15.755,38.421c-37.42-14.091-64.042-50.231-64.042-92.573,0-54.618,44.285-98.903,98.903-98.903v41.481c-31.707,0-57.422,25.703-57.422,57.422Z" fill="#fff" opacity="0"></path>
          <path d="m593.607,145.631c0,25.005,15.999,46.275,38.316,54.152l-15.755,38.421c-37.42-14.091-64.042-50.231-64.042-92.573,0-54.618,44.285-98.903,98.903-98.903v41.481c-31.707,0-57.422,25.703-57.422,57.422Z" fill="#292a2e"></path>
          <path d="m749.931,145.631h-41.481c0-31.719-25.715-57.422-57.422-57.422v-41.481c54.618,0,98.903,44.285,98.903,98.903Z" fill="#E38524"></path>
          <path d="m749.931,145.631c0,47.066-32.882,86.453-76.911,96.448l-7.028-41.004c24.458-6.586,42.458-28.914,42.458-55.444h41.481Z" fill="#E38524" opacity=".5"></path>
          <path d="m673.02,242.079c-7.074,1.606-14.44,2.455-21.991,2.455-12.276,0-24.016-2.234-34.86-6.33l15.755-38.421c5.969,2.106,12.404,3.258,19.106,3.258,5.178,0,10.193-.686,14.963-1.966l7.028,41.004Z" fill="#E38524" opacity=".2"></path>
        </g>
        <path d="m922.671,71.812h-112.903c-.391,0-.707-.317-.707-.707s.316-.707.707-.707h112.903c.391,0,.707.317.707.707s-.316.707-.707.707Z" fill="#E38524"></path>
        <path d="m922.671,121.496h-112.903c-.391,0-.707-.317-.707-.707s.316-.707.707-.707h112.903c.391,0,.707.317.707.707s-.316.707-.707.707Z" fill="#292a2e"></path>
        <g fill="none" opacity=".5">
          <path d="m922.671,171.18h-112.903c-.391,0-.707-.317-.707-.707s.316-.707.707-.707h112.903c.391,0,.707.317.707.707s-.316.707-.707.707Z" fill="#E38524"></path>
        </g>
        <g fill="none" opacity=".2">
          <path d="m922.671,220.864h-112.903c-.391,0-.707-.317-.707-.707s.316-.707.707-.707h112.903c.391,0,.707.317.707.707s-.316.707-.707.707Z" fill="#E38524"></path>
        </g>
        <g>
          <g fill="none" opacity=".1">
            <path d="m923.158,490.891h-367.406c-6.644,0-12.048-5.405-12.048-12.049v-186.139c0-6.643,5.405-12.048,12.048-12.048h367.406c6.643,0,12.048,5.405,12.048,12.048v186.139c0,6.644-5.405,12.049-12.048,12.049Z" fill="#E38524"></path>
          </g>
          <g>
            <rect id="gra5_b" x="584.684" y="322.877" width="11.051" height="140.539" rx="1.949" ry="1.949" fill="#E38524" opacity=".5"></rect>
            <rect id="gra5_b-2" data-name="gra5_b" x="573.633" y="367.018" width="11.051" height="96.399" rx="1.949" ry="1.949" fill="#E38524"></rect>
          </g>
          <g>
            <rect id="gra5_b-3" data-name="gra5_b" x="673.125" y="445.634" width="11.051" height="17.783" rx="1.949" ry="1.949" fill="#E38524" opacity=".5"></rect>
            <rect id="gra5_b-4" data-name="gra5_b" x="662.073" y="359.081" width="11.051" height="104.335" rx="1.949" ry="1.949" fill="#E38524"></rect>
          </g>
          <g>
            <rect id="gra5_b-5" data-name="gra5_b" x="628.905" y="379.294" width="11.051" height="84.122" rx="1.949" ry="1.949" fill="#E38524" opacity=".5"></rect>
            <rect id="gra5_b-6" data-name="gra5_b" x="617.853" y="408.36" width="11.051" height="55.056" rx="1.949" ry="1.949" fill="#E38524"></rect>
          </g>
          <g>
            <rect id="gra5_b-7" data-name="gra5_b" x="805.785" y="350.058" width="11.051" height="113.359" rx="1.949" ry="1.949" fill="#E38524" opacity=".5"></rect>
            <rect id="gra5_b-8" data-name="gra5_b" x="794.734" y="391.793" width="11.051" height="71.624" rx="1.949" ry="1.949" fill="#E38524"></rect>
          </g>
          <g>
            <rect id="gra5_b-9" data-name="gra5_b" x="717.345" y="367.74" width="11.051" height="95.676" rx="1.949" ry="1.949" fill="#E38524" opacity=".5"></rect>
            <rect id="gra5_b-10" data-name="gra5_b" x="706.293" y="378.572" width="11.051" height="84.844" rx="1.949" ry="1.949" fill="#E38524"></rect>
          </g>
          <g>
            <rect id="gra5_b-11" data-name="gra5_b" x="761.565" y="322.877" width="11.051" height="140.539" rx="1.949" ry="1.949" fill="#E38524" opacity=".5"></rect>
            <rect id="gra5_b-12" data-name="gra5_b" x="750.514" y="329.647" width="11.051" height="133.769" rx="1.949" ry="1.949" fill="#E38524"></rect>
          </g>
          <g>
            <rect id="gra5_b-13" data-name="gra5_b" x="850.005" y="322.877" width="11.051" height="140.539" rx="1.949" ry="1.949" fill="#E38524" opacity=".5"></rect>
            <rect id="gra5_b-14" data-name="gra5_b" x="838.954" y="367.018" width="11.051" height="96.399" rx="1.949" ry="1.949" fill="#E38524"></rect>
          </g>
          <g>
            <rect id="gra5_b-15" data-name="gra5_b" x="894.225" y="379.294" width="11.051" height="84.122" rx="1.949" ry="1.949" fill="#E38524" opacity=".5"></rect>
            <rect id="gra5_b-16" data-name="gra5_b" x="883.174" y="408.36" width="11.051" height="55.056" rx="1.949" ry="1.949" fill="#E38524"></rect>
          </g>
        </g>
      </g>
      <g>
        <polygon points="303.826 921.93 301.862 921.553 332.558 616.521 334.521 616.899 303.826 921.93" fill="#494949"></polygon>
        <polygon points="418.123 921.93 416.16 921.553 446.855 616.521 448.819 616.899 418.123 921.93" fill="#494949"></polygon>
        <g>
          <polygon points="670.772 921.93 672.736 921.553 642.04 616.521 640.076 616.899 670.772 921.93" fill="#494949"></polygon>
          <polygon points="556.474 921.93 558.438 921.553 527.742 616.521 525.779 616.899 556.474 921.93" fill="#494949"></polygon>
        </g>
        <rect x="522.745" y="481.81" width="2" height="135.496" transform="translate(-68.127 74.153) rotate(-7.605)" fill="#494949"></rect>
        <rect x="316.921" y="481.81" width="2" height="135.496" transform="translate(-69.938 46.912) rotate(-7.605)" fill="#494949"></rect>
        <g>
          <rect x="322.371" y="606.875" width="220.99" height="19.671" rx="9.835" ry="9.835" fill="#292a2e"></rect>
          <rect x="322.371" y="606.875" width="220.99" height="19.671" rx="9.835" ry="9.835" fill="#fff" opacity=".8"></rect>
          <path d="m533.526,627.546h-201.32c-5.975,0-10.835-4.861-10.835-10.835s4.86-10.835,10.835-10.835h201.32c5.975,0,10.835,4.86,10.835,10.835,0,5.975-4.861,10.835-10.835,10.835Zm-201.32-19.67c-4.872,0-8.835,3.963-8.835,8.835s3.963,8.835,8.835,8.835h201.32c4.872,0,8.835-3.963,8.835-8.835,0-4.872-3.963-8.835-8.835-8.835h-201.32Z" fill="#292a2e"></path>
        </g>
        <g>
          <rect x="432.867" y="606.875" width="220.99" height="19.671" rx="9.835" ry="9.835" fill="#fff"></rect>
          <path d="m644.021,627.546h-201.319c-5.975,0-10.835-4.861-10.835-10.835,0-5.975,4.861-10.835,10.835-10.835h201.319c5.975,0,10.836,4.86,10.836,10.835s-4.861,10.835-10.836,10.835Zm-201.319-19.67c-4.872,0-8.835,3.963-8.835,8.835,0,4.872,3.963,8.835,8.835,8.835h201.319c4.872,0,8.836-3.963,8.836-8.835,0-4.872-3.964-8.835-8.836-8.835h-201.319Z" fill="#292a2e"></path>
        </g>
        <g>
          <path d="m504.738,482.406h-195.247c-6.603,0-12.182-4.899-13.035-11.447l-12.915-99.18c-1.024-7.867,5.101-14.842,13.035-14.842h195.247c6.603,0,12.182,4.899,13.035,11.447l12.915,99.18c1.024,7.867-5.101,14.842-13.035,14.842Z" fill="#292a2e"></path>
          <path d="m504.738,482.406h-195.247c-6.603,0-12.182-4.899-13.035-11.447l-12.915-99.18c-1.024-7.867,5.101-14.842,13.035-14.842h195.247c6.603,0,12.182,4.899,13.035,11.447l12.915,99.18c1.024,7.867-5.101,14.842-13.035,14.842Z" fill="#fff" opacity=".8"></path>
          <path d="m504.738,483.406h-195.247c-7.082,0-13.112-5.296-14.026-12.318l-12.915-99.18c-.525-4.035.713-8.103,3.398-11.16s6.559-4.811,10.628-4.811h195.247c7.082,0,13.112,5.296,14.026,12.319l12.915,99.18c.525,4.035-.713,8.102-3.398,11.16s-6.559,4.811-10.628,4.811Zm-208.162-125.469c-3.494,0-6.82,1.506-9.125,4.131-2.306,2.625-3.369,6.118-2.917,9.582l12.915,99.18c.785,6.029,5.962,10.576,12.043,10.576h195.247c3.494,0,6.82-1.506,9.125-4.131,2.306-2.625,3.369-6.118,2.918-9.582l-12.915-99.18c-.785-6.03-5.962-10.577-12.043-10.577h-195.247Z" fill="#292a2e"></path>
        </g>
        <g>
          <path d="m515.778,482.406h-195.247c-6.603,0-12.182-4.899-13.035-11.447l-12.915-99.18c-1.024-7.867,5.101-14.842,13.035-14.842h195.247c6.603,0,12.182,4.899,13.035,11.447l12.915,99.18c1.024,7.867-5.101,14.842-13.035,14.842Z" fill="#fff"></path>
          <path d="m515.778,483.406h-195.247c-7.082,0-13.112-5.296-14.026-12.318l-12.915-99.18c-.525-4.035.713-8.103,3.398-11.16s6.559-4.811,10.628-4.811h195.247c7.082,0,13.112,5.296,14.026,12.319l12.915,99.18c.525,4.035-.713,8.102-3.398,11.16s-6.559,4.811-10.628,4.811Zm-208.162-125.469c-3.494,0-6.82,1.505-9.125,4.131-2.306,2.625-3.369,6.118-2.918,9.583l12.915,99.18c.785,6.029,5.962,10.576,12.043,10.576h195.247c3.494,0,6.82-1.506,9.125-4.131,2.306-2.625,3.369-6.118,2.918-9.582l-12.915-99.18c-.785-6.03-5.962-10.577-12.043-10.577h-195.247Z" fill="#292a2e"></path>
        </g>
      </g>
      <g>
        <g>
          <path d="m659.74,869.808s5.362,27.794,31.385,29.343c26.023,1.549,20.38,22.28,20.38,22.28h-99.444v-49.684s47.68-1.938,47.68-1.938Z" fill="#E38524"></path>
          <path d="m560.513,852.26s-7.457,27.306,15.209,40.183c22.667,12.877,8.452,28.988,8.452,28.988l-89.232-43.896,21.931-44.582,43.639,19.307Z" fill="#E38524"></path>
          <g>
            <path d="m505.245,844.547l95.249-237.39h-116.399c-27.398,0-38.822-23.235-38.822-50.633s26.935-51.416,54.334-51.416h164.089c16.711,0,35.449,10.22,44.621,24.19,9.171,13.969,6.693,35.618.048,50.951l-140.498,292.667" fill="#262626"></path>
            <path d="m505.245,844.547l95.249-237.39h-116.399c-27.398,0-38.822-23.235-38.822-50.633s26.935-51.416,54.334-51.416h164.089c16.711,0,35.449,10.22,44.621,24.19,9.171,13.969,6.693,35.618.048,50.951l-140.498,292.667" fill="#0a0a0a" opacity=".8"></path>
            <path d="m604.285,889.732l-53.802-282.575-105.209-.011c-38.711-3.035-56.44-24.25-55.877-51.642.556-27.045,14.25-53.758,41.174-53.758h162.669c19.92.409,42.982,19.252,42.982,40.925l41.57,343.777" fill="#262626"></path>
            <path d="m378.127,502.078s-7.337,47.846,4.293,74.447c14.519,33.21,68.947,30.622,68.947,30.622l-3.067-105.4-70.173.331Z" fill="#262626"></path>
          </g>
        </g>
        <g>
          <path d="m402.841,203.86c1.556,35.935-4.451,49.018-12.173,72.027-6.804,20.272,54.477,1.84,86.282-2.432l-24.374-82.607s-50.282.394-49.735,13.013Z" fill="#0a0a0a"></path>
          <path d="m513.562,194.555c7.831,35.106,8.416,40.852,21.457,63.113,10.161,17.343-42.229,17.999-74.052,22.135l2.08-86.103s47.765-11.472,50.516.855Z" fill="#0a0a0a"></path>
        </g>
        <g>
          <path d="m370.041,496.67l-.211.012s.153-4.076.211-.012Z" fill="#333"></path>
          <g>
            <path d="m370.307,496.67l-.211.012s.153-4.076.211-.012Z" fill="#333"></path>
            <g>
              <path d="m724.492,302.692c-.853-1.672-2.59-2.466-4.261-2.256,0-.075-.001-.152-.047-.219-.083-.115-.212-.148-.342-.139l2.89-2.072c1.747-1.252,2.461-3.631,1.431-5.518-1.068-1.957-3.372-2.664-5.282-1.869.007-.041-.02-.08-.026-.122l1.188-.851c1.643-1.178,2.353-3.369,1.506-5.205-1.14-2.47-4.154-3.184-6.251-1.681l-2.741,1.964c-.008-.016,0-.035-.011-.05-.012-.02-.04-.02-.056-.037,1.268-1.428,1.435-3.588.275-5.205-1.294-2.082-4.28-1.656-6.052-.386l-16.131,11.142,2.883-4.854c1.156-1.946.735-4.557-1.148-5.813-2.008-1.34-4.703-.71-5.92,1.339l-15.743,26.503c-3.84,6.465-1.84,14.811,4.512,18.834h0c7.249,4.59,16.557,4.323,23.531-.676l24.36-17.46c1.607-1.152,2.334-3.607,1.436-5.369Z" fill="#ff9e85"></path>
              <g fill="none" opacity=".25">
                <path d="m696.589,295.736c.123.169.359.21.532.09l15.327-10.616c.175-.121.219-.361.097-.537-.101-.174-.362-.219-.537-.097l-15.327,10.616c-.175.121-.219.361-.097.537l.005.007Z" fill="#0c0c0c"></path>
              </g>
              <g fill="none" opacity=".25">
                <path d="m701.085,302.625c.123.169.359.21.532.09l17.104-11.847c.175-.121.219-.361.097-.537-.112-.159-.362-.218-.537-.097l-17.104,11.847c-.175.121-.219.361-.097.537l.005.007Z" fill="#0c0c0c"></path>
              </g>
              <g fill="none" opacity=".25">
                <path d="m705.911,310.114c.123.169.359.21.532.09l13.644-9.45c.175-.121.219-.361.097-.537-.126-.174-.362-.218-.537-.097l-13.644,9.45c-.175.121-.219.361-.097.537l.005.007Z" fill="#0c0c0c"></path>
              </g>
            </g>
            <path d="m690.581,290.187l2.883-4.854c1.156-1.946.735-4.557-1.148-5.813-2.008-1.34-4.703-.71-5.92,1.339l-15.743,26.503" fill="#ff9e85"></path>
            <path d="m661.364,301.327l-46.233,78.739-56.413-73.993-46.849,42.237,80.006,103.616.524.738c2.79,3.832,6.479,7.1,10.957,9.455,15.63,8.22,34.964,2.213,43.184-13.417l65.742-119.055-50.921-28.318Z" fill="#E38524"></path>
            <path d="m610.599,389.534c-.091,0-.181-.021-.267-.064-.289-.147-.404-.501-.256-.79l4.532-8.881c.147-.289.502-.403.79-.256.289.147.404.501.256.79l-4.532,8.881c-.103.203-.31.32-.523.32Z" fill="#0c0c0c"></path>
            <rect x="542.891" y="391.499" width="24.909" height="1.174" transform="translate(132.424 924.324) rotate(-86.752)" fill="#0c0c0c"></rect>
            <g>
              <g>
                <path id="sk" d="m504.233,289.252c-.198-.026-2.393,36.404-44.714,33.228-29.298-2.195-39.745-33.279-40.416-33.279,3.159-.671,8.478-1.648,9.881-2.396,4.613-2.479,10.322-5.058,11.809-14.017.857-5.164-.597-31.581-.149-36.805l44.973,10.038c-.628,11.034-5.026,36.614,10.389,41.142,2.565.749,5.328,1.437,8.228,2.091Z" fill="#ff9e85"></path>
                <path id="sh" d="m486.246,276.706c-.637-2.033-1.016-3.801-1.353-6.98-.602-5.684-.282-10.91.294-16.234-9.085-1.209-17.808-5.031-24.856-10.89-.835,3.084-5.428,16.56-4.156,19.491,2.404,5.541,13.698,14.613,30.071,14.613Z" fill="#0c0c0c" opacity=".52"></path>
                <path d="m479.286,265.241c-17.75,1.51-38.607-5.847-43.086-29.513l-5.041-21.354c-4.479-23.666,4.32-45.203,26.603-49.42h0c22.282-4.217,42.568,11.816,47.047,35.482l1.789,9.454c1.718,9.08,4.357,52.656-27.312,55.351Z" fill="#ff9e85"></path>
              </g>
              <path d="m556.814,369.453c-1.333,15.66-7.817,113.004-9.099,132.293l-169.586.361c-.998-17.398-12.526-93.473-16.31-127.494-3.612-32.465-10.698-48.719-5.504-58.316,8.488-15.686,31.682-24.751,47.497-26.892,9.658-1.307,24.183-2.245,24.183-2.245,0,0,1.23,24.88,30.556,26.264,39.921,1.883,37.255-26.264,37.453-26.264,6.467,0,43.412,4.094,52.451,9.451,24.63,14.585,11.189,39.654,8.359,72.842Z" fill="#E38524"></path>
              <path d="m666.891,380.393l-16.347,79.453c-.684,3.325-3.597,5.72-6.991,5.749l-112.561.958c-4.585.039-8.038-4.16-7.114-8.651l16.347-79.453c.684-3.325,3.597-5.72,6.991-5.749l112.561-.958c4.585-.039,8.038,4.16,7.114,8.651Z" fill="#292a2e"></path>
              <g>
                <path d="m561.931,436.83c.2,2.138-1.386,4.041-3.489,4.511l-3.465.764c.118.047.223.129.258.27.012.07-.012.153-.047.211,1.621.47,2.913,1.879,3.031,3.759.141,1.962-1.492,3.935-3.418,4.37l-29.26,6.496c-1.515.341-3.042.505-4.558.505-6.836,0-13.367-3.336-17.349-9.127-4.264-6.19-2.831-14.66,3.242-19.088l24.891-18.195c.564-.411,1.21-.67,1.856-.763l-2.291,11.124.611-.141.129-.024,19.088-3.888c2.126-.47,5.039.305,5.415,2.725.423,1.95-.576,3.865-2.302,4.687.012.012.035.024.035.047.012.023-.012.035-.012.059l3.301-.728c2.514-.564,5.004,1.28,5.086,3.994.059,2.02-1.457,3.759-3.43,4.193l-1.421.317c-.012.047,0,.094-.023.129,2.067.012,3.912,1.574,4.123,3.794Z" fill="#ff9e85"></path>
                <g fill="none" opacity=".25">
                  <path d="m535.293,428.986c.047.204.248.334.454.292l18.264-3.745c.209-.043.343-.247.3-.456-.025-.199-.247-.343-.456-.3l-18.264,3.745c-.209.043-.343.247-.3.456l.002.009Z" fill="#0c0c0c"></path>
                </g>
                <g fill="none" opacity=".25">
                  <path d="m536.723,437.087c.047.204.248.334.454.292l20.383-4.18c.209-.043.343-.247.3-.456-.04-.191-.247-.343-.456-.3l-20.383,4.18c-.209.043-.343.247-.3.456l.002.009Z" fill="#0c0c0c"></path>
                </g>
                <g fill="none" opacity=".25">
                  <path d="m538.221,445.869c.047.204.248.334.454.292l16.259-3.334c.209-.043.343-.247.3-.456-.047-.21-.247-.343-.456-.3l-16.259,3.334c-.209.043-.343.247-.3.456l.002.009Z" fill="#0c0c0c"></path>
                </g>
              </g>
              <path id="b_4_b" d="m523.728,468.787l-158.747,28.688c-1.167.127-2.332.189-3.492.189-8.827,0-17.329-3.626-23.456-10.119-6.932-7.349-10.021-17.52-8.345-27.481l22.224-132.097c2.955-17.564,19.586-29.403,37.154-26.452,17.564,2.955,29.407,19.589,26.452,37.154l-15.154,90.935,116.385-14.617,6.979,53.801Z" fill="#E38524"></path>
              <g id="b_4_b-2" data-name="b_4_b">
                <path d="m364.98,498.063c-.279,0-.525-.198-.577-.483-.057-.319.155-.625.474-.683l158.197-28.588-6.832-52.666-115.804,14.543c-.192.023-.368-.041-.497-.176s-.187-.32-.156-.504l9.633-58.118c.053-.319.352-.544.676-.483.32.053.536.356.483.676l-9.505,57.341,115.604-14.518c.314-.039.614.186.656.507l6.979,53.801c.04.311-.17.598-.478.654l-158.747,28.688c-.036.006-.07.009-.106.009Z" fill="#0c0c0c"></path>
              </g>
              <rect x="390.088" y="429.835" width="10.341" height="1.176" transform="translate(-63.066 67.888) rotate(-9.095)" fill="#0c0c0c"></rect>
            </g>
          </g>
        </g>
        <path d="m408.989,220.007l34.42,6.74c13.758-14.102,22.85-40.992,22.85-40.992,0,0,36.691,19.579,49.02,17.241,0,0-3.744-63.892-68.788-52.783-21.117,3.607-42.457,23.373-43.675,51.855-.895,20.944,6.172,17.939,6.172,17.939Z" fill="#0a0a0a"></path>
        <g>
          <path id="e1_eb" d="m504.584,200.914c-.023.831-3.132.989-7.31.665-4.178-.324-7.894-.806-7.822-1.839.091-1.304,3.57-2.098,7.749-1.774,4.178.324,7.419,1.64,7.383,2.947Z" fill="#0a0a0a"></path>
          <g>
            <circle id="e1_eye" cx="499.455" cy="208.355" r="2.656" transform="translate(-14.814 39.849) rotate(-4.502)" fill="#0a0a0a"></circle>
            <g id="e1_n">
              <path d="m487.704,231.35c-.536.042-1.027-.326-1.127-.866-.107-.577.274-1.131.852-1.238l5.563-1.028-4.335-10.932c-.216-.546.051-1.163.597-1.379.545-.216,1.162.051,1.379.596l4.81,12.134c.117.295.095.628-.059.906s-.424.473-.737.531l-6.834,1.263c-.037.007-.074.012-.11.014Z" fill="#0a0a0a"></path>
            </g>
            <g id="e1_m">
              <path d="m483.714,244.446c-9.601.756-12.914-4.821-13.064-5.083-.291-.509-.114-1.158.395-1.45.506-.291,1.152-.115,1.446.389.139.237,3.519,5.704,13.985,3.61.587-.12,1.136.258,1.251.833.115.575-.258,1.135-.833,1.25-1.129.226-2.189.372-3.179.45Z" fill="#0a0a0a"></path>
            </g>
            <path id="e1_eb-2" data-name="e1_eb" d="m476.453,202.893c.316.769-2.461,2.175-6.411,3.574-3.951,1.399-7.542,2.467-7.895,1.493-.446-1.229,2.412-3.366,6.363-4.765s7.446-1.511,7.944-.302Z" fill="#0a0a0a"></path>
            <circle id="e1_eye-2" data-name="e1_eye" cx="473.035" cy="212.134" r="2.656" transform="translate(-15.192 37.787) rotate(-4.502)" fill="#0a0a0a"></circle>
          </g>
        </g>
        <path d="m437.948,242.676c-6.772,1.282-13.632-4.924-14.913-11.696-1.282-6.772,3.501-11.545,10.273-12.826l6.062-1.129,4.401,24.549-5.822,1.102Z" fill="#ff9e85"></path>
        <path d="m423.252,214.123l.463,10.129c1.736-2.458,4.381-4.281,7.567-4.916.791-.169,1.585-.221,2.365-.217,5.132,3.447,2.25,10.707,6.194,10.187,2.24-.295,6.949-6.008,7.919-9.398.615-2.149-5.635-9.717-5.782-11.948l-18.726,6.163Z" fill="#0a0a0a"></path>
      </g>
      <g>
        <g>
          <rect x="106.095" y="486.674" width="947.391" height="16.387" rx="8.194" ry="8.194" transform="translate(1159.581 989.734) rotate(180)" fill="#292a2e"></rect>
          <rect x="106.095" y="486.674" width="947.391" height="16.387" rx="8.194" ry="8.194" transform="translate(1159.581 989.734) rotate(180)" fill="#fff" opacity=".8"></rect>
          <path d="m105.095,494.867c0-5.069,4.124-9.194,9.193-9.194h931.004c5.069,0,9.194,4.125,9.194,9.194,0,5.069-4.125,9.193-9.194,9.193H114.288c-5.069,0-9.193-4.124-9.193-9.193Zm9.193-7.194c-3.967,0-7.193,3.227-7.193,7.194,0,3.966,3.227,7.193,7.193,7.193h931.004c3.967,0,7.194-3.227,7.194-7.193s-3.227-7.194-7.194-7.194H114.288Z" fill="#292a2e"></path>
        </g>
        <g>
          <rect x="106.095" y="486.674" width="766.43" height="16.387" rx="8.194" ry="8.194" transform="translate(978.62 989.734) rotate(180)" fill="#fff"></rect>
          <path d="m105.095,494.867c0-5.069,4.124-9.194,9.193-9.194h750.043c5.069,0,9.193,4.125,9.193,9.194,0,5.069-4.124,9.193-9.193,9.193H114.288c-5.069,0-9.193-4.124-9.193-9.193Zm9.193-7.194c-3.967,0-7.193,3.227-7.193,7.194,0,3.966,3.227,7.193,7.193,7.193h750.043c3.966,0,7.193-3.227,7.193-7.193s-3.227-7.194-7.193-7.194H114.288Z" fill="#292a2e"></path>
        </g>
      </g>
      <g>
        <g>
          <g>
            <path d="m54.443,507.334c-10.827,0-21.148-4.97-27.897-13.614-7.542-9.659-9.552-22.533-5.312-34.032,2.003-5.433,53.36-138.006,62.3-161.049l61.804,35.963c-5.027,12.956-23.24,62.064-37.872,101.623l24.309-2.642,7.652,64.721-81.152,8.822c-1.28.139-2.559.207-3.83.207Z" fill="#E38524"></path>
            <path id="h_3_sk" d="m256.596,271.072c-.217-.028-6.164,22.354-52.581,18.871-32.134-2.407-39.969-24.28-40.705-24.28,3.465-.736,9.091-1.501,10.629-2.322,5.06-2.719,8.746-6.028,10.601-13.131,1.451-5.555,2.19-26.938,2.19-37.666l49.447,11.111c-.689,12.102-5.513,40.158,11.394,45.123,2.813.821,5.843,1.576,9.025,2.294Z" fill="#ff9e85"></path>
            <path d="m234.466,247.447c-19.493,1.538-44.534-6.692-49.29-32.7l-4.292-23.467c-4.756-26.007,5.047-49.588,29.535-54.067h0c24.487-4.478,46.646,13.257,51.402,39.265l1.9,10.389c1.825,9.979,5.525,57.835-29.255,60.579Z" fill="#ff9e85"></path>
            <path id="b_1_b" d="m142.198,269.263c-17.517,1.3-35.378,3.196-48.268,15.129-15.523,14.371-18.336,32.042-8.433,80.671,8.521,41.843,5.141,60.127,10.841,137.34.168,2.275.528,6.979.528,6.979l198.564-.324s6.379-102.427,16.076-149.675c7.372-35.92,26.735-79.526-54.907-88.315-.217-.023-65.696-5.419-114.401-1.805Z" fill="#E38524"></path>
            <g id="b_4_ha">
              <path d="m469.628,316.14l-23.566,16.742,2.06-3.383c1.278-2.301.7-5.32-1.532-6.716-2.38-1.489-5.489-.666-6.834,1.757l-16.245,29.035c-4.265,7.622-1.675,17.255,5.838,21.71h0c8.58,5.088,19.388,4.462,27.323-1.583l17.546-13.417c1.87-1.425,2.621-3.995,1.574-6.1-1.011-2.033-3.114-2.975-5.102-2.676-.005-.077-.019-.156-.066-.225-.088-.131-.232-.193-.379-.194l3.248-2.474c1.987-1.514,2.736-4.301,1.477-6.459-1.308-2.241-4.014-2.99-6.209-1.997.008-.053.001-.1-.009-.153l1.332-1.015c1.734-1.321,2.548-4.087,1.599-6.049-1.215-2.51-4.079-3.396-6.384-2.363l-.048-.08,9.902-7.034c2.131-1.514,2.579-4.515.934-6.591-1.542-1.946-4.433-2.173-6.457-.735Z" fill="#ff9e85"></path>
              <path id="b_4_ha_sh" d="m465.353,331.127c-.03.042-.068.08-.113.111l-9.697,6.72c-.207.144-.492.092-.635-.115-.144-.207-.091-.491.115-.635l9.697-6.72c.207-.144.492-.092.635.115.113.162.105.372-.003.524Z" fill="#0c0c0c" opacity=".2"></path>
              <path id="b_4_ha_sh-2" data-name="b_4_ha_sh" d="m468.695,340.359c-.029.041-.066.078-.11.109l-7.58,5.342c-.206.145-.491.096-.636-.11-.146-.206-.097-.492.11-.636l7.58-5.342c.206-.145.491-.096.636.11.114.162.108.374,0,.527Z" fill="#0c0c0c" opacity=".2"></path>
              <path id="b_4_ha_sh-3" data-name="b_4_ha_sh" d="m470.616,351.802c-.031.044-.071.084-.119.115l-3.639,2.439c-.209.141-.493.085-.633-.125-.142-.21-.087-.493.125-.634l3.639-2.439c.209-.141.493-.085.633.125.109.162.1.368-.006.518Z" fill="#0c0c0c" opacity=".2"></path>
            </g>
            <path d="m328.194,499.7c-13.64-1.728-25.064-9.154-29.294-22.236l-49.184-152.111,67.366-21.782,28.87,102.032,70.222-68.767,46.636,47.67-100.259,100.911c-6.53,10.384-23.622,15.644-34.357,14.283Z" fill="#E38524"></path>
            <path d="m96.866,509.855c-.253,0-.462-.2-.472-.454l-5.872-152.433c-.009-.26.194-.479.454-.49.288-.017.48.194.49.454l5.872,152.433c.009.26-.194.479-.454.49-.006,0-.013,0-.018,0Z" fill="#0c0c0c"></path>
            <path d="m262.524,272.402c-.28,24.85-18.89,35.95-57.13,38.54-38.25,2.58-80.43-11.63-74.35-45.59,6.16-34.37,15.2-44.86,17.36-79.58.09-1.6.18-3.26.25-4.97,1.59-39.39,30.09-55.05,44.18-56.98,16.57-2.28,29.05.13,33.93,2.03,19.42,6.17,28.82,20.58,32.48,30.05,1.16,3-1.74,5.98-4.78,4.93-1.22-.42-2.55-1.04-4.23-1.96,1.07,4.11,2.31,13.63-2.41,21.93-.13,8.72.66,17.1,2.43,27.63.63,3.8,1.39,7.88,2.28,12.36,6.72,33.75,10.3,23.76,9.99,51.61Z" fill="#0a0a0a"></path>
            <path d="m252.552,208.832c-7.442,1.361-14.93-5.497-16.291-12.939-1.361-7.442,2.031-15.094,11.558-15.094l4.733,28.033Z" fill="#ff9e85"></path>
            <path d="m351.965,427.027c-.21,0-.402-.141-.457-.354l-5.569-21.453c-.065-.252.087-.51.338-.575.255-.067.511.087.576.338l5.569,21.453c.065.252-.087.51-.338.575-.04.011-.08.015-.119.015Z" fill="#0c0c0c"></path>
          </g>
          <g>
            <g>
              <path d="m228.998,855.529l-4.138,65.13,88.945.424s4.533-16.348-16.312-23.326c-11.59-3.88-19.155-16.923-16.79-33.016l-51.704-9.212Z" fill="#383838"></path>
              <path d="m228.998,855.529l-4.138,65.13,88.945.424s4.533-16.348-16.312-23.326c-11.59-3.88-19.155-16.923-16.79-33.016l-51.704-9.212Z" fill="#070707" opacity=".17"></path>
            </g>
            <path d="m348.998,855.529l-4.138,65.13,88.945.424s4.533-16.348-16.312-23.326c-11.59-3.88-19.155-16.923-16.79-33.016l-51.704-9.212Z" fill="#383838"></path>
            <polygon points="314.027 552.071 298.416 885.809 218.461 883.122 225.295 549.089 314.027 552.071" fill="#292a2e"></polygon>
            <polygon points="314.027 552.071 298.416 885.809 218.461 883.122 225.295 549.089 314.027 552.071" fill="#fff" opacity=".52"></polygon>
            <path d="m333.46,883.892l79.944-2.989-6.962-320.062c.042-.771.071-1.546.077-2.327h0c.014-1.771-.072-3.519-.242-5.242l-.009-.416h-.041c-2.621-24.399-23.247-43.453-48.384-43.501l-190.69-.366-.005-.135h-70.266s-7.244,48.177,4.386,74.778c14.519,33.21,69.187,24.243,69.187,24.243l-.033-.979h147.501l15.535,276.996Z" fill="#292a2e"></path>
            <path d="m333.46,883.892l79.944-2.989-6.962-320.062c.042-.771.071-1.546.077-2.327h0c.014-1.771-.072-3.519-.242-5.242l-.009-.416h-.041c-2.621-24.399-23.247-43.453-48.384-43.501l-190.69-.366-.005-.135h-70.266s-7.244,48.177,4.386,74.778c14.519,33.21,69.187,24.243,69.187,24.243l-.033-.979h147.501l15.535,276.996Z" fill="#fff" opacity=".64"></path>
          </g>
        </g>
        <g>
          <g>
            <polygon points="435.069 922.952 437.033 922.574 396.337 617.543 394.374 617.921 435.069 922.952" fill="#494949"></polygon>
            <polygon points="310.772 922.952 312.735 922.574 282.04 617.543 280.076 617.921 310.772 922.952" fill="#494949"></polygon>
          </g>
          <g>
            <path d="m270.076,483.428H74.829c-6.603,0-12.182-4.899-13.035-11.447l-12.915-99.18c-1.024-7.867,5.101-14.842,13.035-14.842h195.247c6.603,0,12.182,4.899,13.035,11.447l12.915,99.18c1.024,7.867-5.101,14.842-13.035,14.842Z" fill="#fff"></path>
            <path d="m270.076,484.428H74.829c-7.082,0-13.112-5.296-14.026-12.318l-12.915-99.18c-.525-4.035.713-8.103,3.398-11.16,2.685-3.058,6.559-4.811,10.628-4.811h195.247c7.082,0,13.112,5.296,14.026,12.319l12.915,99.18c.525,4.035-.713,8.102-3.398,11.16-2.685,3.058-6.559,4.811-10.628,4.811Zm-208.162-125.469c-3.494,0-6.82,1.505-9.125,4.131-2.306,2.625-3.369,6.118-2.918,9.583l12.915,99.18c.785,6.029,5.962,10.576,12.043,10.576h195.247c3.494,0,6.82-1.506,9.125-4.131,2.306-2.625,3.369-6.118,2.918-9.582l-12.915-99.18c-.785-6.03-5.962-10.577-12.043-10.577H61.914Z" fill="#292a2e"></path>
          </g>
          <g>
            <rect x="187.164" y="607.897" width="220.99" height="19.671" rx="9.835" ry="9.835" fill="#fff"></rect>
            <path d="m398.319,628.567h-201.319c-5.975,0-10.835-4.861-10.835-10.835s4.861-10.835,10.835-10.835h201.319c5.975,0,10.836,4.86,10.836,10.835s-4.861,10.835-10.836,10.835Zm-201.319-19.67c-4.872,0-8.835,3.963-8.835,8.835,0,4.872,3.963,8.835,8.835,8.835h201.319c4.872,0,8.836-3.963,8.836-8.835,0-4.872-3.964-8.835-8.836-8.835h-201.319Z" fill="#292a2e"></path>
          </g>
          <polygon points="58.123 922.952 56.159 922.574 86.855 617.543 88.819 617.921 58.123 922.952" fill="#494949"></polygon>
          <polygon points="172.421 922.952 170.457 922.574 201.153 617.543 203.116 617.921 172.421 922.952" fill="#494949"></polygon>
          <rect x="277.042" y="482.832" width="2" height="135.496" transform="translate(-70.424 41.643) rotate(-7.605)" fill="#494949"></rect>
          <rect x="71.218" y="482.832" width="2" height="135.496" transform="translate(-72.235 14.402) rotate(-7.605)" fill="#494949"></rect>
          <g>
            <rect x="76.669" y="607.897" width="220.99" height="19.671" rx="9.835" ry="9.835" fill="#292a2e"></rect>
            <rect x="76.669" y="607.897" width="220.99" height="19.671" rx="9.835" ry="9.835" fill="#fff" opacity=".8"></rect>
            <path d="m287.824,628.567H86.504c-5.975,0-10.835-4.861-10.835-10.835s4.86-10.835,10.835-10.835h201.32c5.975,0,10.835,4.86,10.835,10.835s-4.861,10.835-10.835,10.835Zm-201.32-19.67c-4.872,0-8.835,3.963-8.835,8.835,0,4.872,3.963,8.835,8.835,8.835h201.32c4.872,0,8.835-3.963,8.835-8.835,0-4.872-3.963-8.835-8.835-8.835H86.504Z" fill="#292a2e"></path>
          </g>
          <g>
            <path d="m259.035,483.428H63.788c-6.603,0-12.182-4.899-13.035-11.447l-12.915-99.18c-1.024-7.867,5.101-14.842,13.035-14.842h195.247c6.603,0,12.182,4.899,13.035,11.447l12.915,99.18c1.024,7.867-5.101,14.842-13.035,14.842Z" fill="#292a2e"></path>
            <path d="m259.035,483.428H63.788c-6.603,0-12.182-4.899-13.035-11.447l-12.915-99.18c-1.024-7.867,5.101-14.842,13.035-14.842h195.247c6.603,0,12.182,4.899,13.035,11.447l12.915,99.18c1.024,7.867-5.101,14.842-13.035,14.842Z" fill="#fff" opacity=".8"></path>
            <path d="m259.035,484.428H63.788c-7.082,0-13.112-5.296-14.026-12.318l-12.915-99.18c-.525-4.035.713-8.103,3.398-11.16,2.685-3.058,6.559-4.811,10.628-4.811h195.247c7.082,0,13.112,5.296,14.026,12.319l12.915,99.18c.525,4.035-.713,8.102-3.398,11.16-2.685,3.058-6.559,4.811-10.628,4.811Zm-208.162-125.469c-3.494,0-6.82,1.506-9.125,4.131-2.306,2.625-3.369,6.118-2.917,9.582l12.915,99.18c.785,6.029,5.962,10.576,12.043,10.576h195.247c3.494,0,6.82-1.506,9.125-4.131,2.306-2.625,3.369-6.118,2.918-9.582l-12.915-99.18c-.785-6.03-5.962-10.577-12.043-10.577H50.873Z" fill="#292a2e"></path>
          </g>
        </g>
      </g>
      <circle cx="656.774" cy="381.699" r="3.846" fill="#fff"></circle>
      <g>
        <g>
          <path d="m917.599,475.818l-17.502-96.835c-1.136-3.491-4.389-5.854-8.06-5.854h-128.34c-5.76,0-9.842,5.621-8.06,11.098l17.502,96.835c1.136,3.491,4.389,5.854,8.06,5.854h128.34c5.76,0,9.842-5.621,8.06-11.098Z" fill="#fff"></path>
          <path d="m909.54,487.916h-128.341c-4.117,0-7.738-2.63-9.011-6.544l-.033-.132-17.49-96.77c-.921-2.899-.425-5.97,1.365-8.435,1.804-2.483,4.598-3.907,7.667-3.907h128.341c4.116,0,7.737,2.63,9.011,6.545l.033.132,17.49,96.77c.921,2.898.425,5.969-1.365,8.433-1.804,2.483-4.598,3.908-7.667,3.908Zm-135.429-7.1c1.021,3.053,3.861,5.1,7.088,5.1h128.341c2.421,0,4.626-1.124,6.049-3.083s1.809-4.403,1.06-6.705l-.033-.132-17.489-96.766c-1.022-3.055-3.862-5.102-7.088-5.102h-128.341c-2.421,0-4.626,1.124-6.049,3.083s-1.81,4.403-1.06,6.706l.033.132,17.489,96.767Z" fill="#292a2e"></path>
        </g>
        <g>
          <path d="m912.995,481.192l-18.294-99.27c-.596-1.831-2.302-3.07-4.227-3.07h-124.112c-3.021,0-5.162,2.948-4.227,5.821l17.399,96.519h133.462Z" fill="#fff"></path>
          <path d="m914.197,482.192h-135.499l-17.536-97.277c-.517-1.657-.229-3.409.794-4.817,1.037-1.427,2.643-2.245,4.406-2.245h124.112c2.365,0,4.446,1.512,5.179,3.761l.032.128,18.512,100.451Zm-133.827-2h131.425l-18.063-98.019c-.479-1.392-1.78-2.321-3.257-2.321h-124.112c-1.116,0-2.132.518-2.788,1.421-.655.903-.834,2.029-.488,3.091l.033.132,17.251,95.696Z" fill="#292a2e"></path>
        </g>
        <g>
          <path d="m839.566,424.769c0-8.395-5.371-15.536-12.864-18.181l5.289-12.899c12.563,4.731,21.502,16.865,21.502,31.08,0,18.337-14.868,33.206-33.206,33.206v-13.927c10.645,0,19.279-8.63,19.279-19.279Z" fill="#fff" opacity="0"></path>
          <path d="m839.566,424.769c0-8.395-5.371-15.536-12.864-18.181l5.289-12.899c12.563,4.731,21.502,16.865,21.502,31.08,0,18.337-14.868,33.206-33.206,33.206v-13.927c10.645,0,19.279-8.63,19.279-19.279Z" fill="#292a2e"></path>
          <path d="m787.082,424.769h13.927c0,10.649,8.633,19.279,19.279,19.279v13.927c-18.337,0-33.206-14.868-33.206-33.206Z" fill="#E38524"></path>
          <path d="m787.082,424.769c0-15.802,11.04-29.026,25.822-32.381l2.36,13.767c-8.212,2.211-14.255,9.708-14.255,18.615h-13.927Z" fill="#E38524" opacity=".5"></path>
          <path d="m812.904,392.387c2.375-.539,4.848-.824,7.383-.824,4.121,0,8.063.75,11.704,2.125l-5.289,12.899c-2.004-.707-4.164-1.094-6.415-1.094-1.738,0-3.422.23-5.024.66l-2.36-13.767Z" fill="#E38524" opacity=".2"></path>
        </g>
        <g>
          <rect x="774.091" y="478.815" width="207.598" height="7.852" rx="3.926" ry="3.926" fill="#fff"></rect>
          <path d="m977.763,487.667h-199.747c-2.716,0-4.926-2.21-4.926-4.926s2.21-4.926,4.926-4.926h199.747c2.716,0,4.926,2.21,4.926,4.926s-2.21,4.926-4.926,4.926Zm-199.747-7.852c-1.613,0-2.926,1.312-2.926,2.926s1.312,2.926,2.926,2.926h199.747c1.613,0,2.926-1.312,2.926-2.926s-1.312-2.926-2.926-2.926h-199.747Z" fill="#292a2e"></path>
        </g>
      </g>
      <g>
        <g>
          <g>
            <g>
              <path id="sk-2" data-name="sk" d="m928.297,275.752c.217-.028,2.619,39.828,48.92,36.353,32.054-2.401,43.483-36.409,44.217-36.409-3.456-.735-9.276-1.803-10.81-2.622-5.047-2.712-12.237-5.534-13.863-15.336-.938-5.649.653-34.551.163-40.267l-48.259,10.982c.687,12.072,5.499,40.058-11.366,45.011-2.806.819-5.829,1.573-9.002,2.288Z" fill="#ff9e85"></path>
              <g>
                <path d="m950.023,247.282c19.431,1.5,44.375-6.746,49.072-32.675l4.238-23.396c4.696-25.929-5.115-49.416-29.529-53.838h0c-24.414-4.422-46.469,13.293-51.165,39.222l-1.876,10.358c-.386,2.132-.855,5.999-1.013,10.784-.314,9.548-.754,24.073,3.97,34.742,4.46,10.072,13.89,13.845,26.304,14.803Z" fill="#ff9e85"></path>
                <path d="m993.599,136.045c-6.218-2.03-15.015-3.757-23.79-4.048-.783-3.082-2.526-5.478-5.091-6.479-4.269-1.668-9.484,1.018-12.953,6.195-1.929-2.956-4.543-5.62-8.007-6.699-9.558-2.976-10.032,10.754-10.032,10.754,0,0-15.154-14.954-15.628,4.118-.572,23.076,3.667,29.844,6.76,31.552,6.11,3.374,10.66,2.803,13.078,7.767,7.322,15.032.146,57.372,8.618,62.673,12.98,8.122,39.566,8.402,48.201,7.785,3.321-.238,6.428-4.087,7.827-7.108,4.516-9.754,14.589-31.866,17.392-41.011,5.174-16.877,4.784-55.324-26.375-65.498Z" fill="#0c0c0c"></path>
                <path d="m940.754,226.751c7.496-.814,12.702-9.493,11.888-16.989-.814-7.496-7.339-10.97-14.835-10.156l-3.317,5.442-.181,22.403,6.445-.7Z" fill="#ff9e85"></path>
              </g>
              <g>
                <g>
                  <path d="m1065.968,503.604l.232.013s-.168-4.475-.232-.013Z" fill="#333"></path>
                  <path d="m861.735,363.941c1.463,17.193,8.582,124.456,9.989,145.633h193.915c1.095-19.1,6.014-102.618,10.168-139.968,3.965-35.641,11.745-53.485,6.042-64.022-9.318-17.221-34.782-27.172-52.144-29.523-10.603-1.435-12.788-2.464-17.109-2.464-31.102,0-74.445,0-74.662,0-7.1,0-52.438,6.841-61.732,13.674-25.726,18.914-17.574,40.236-14.468,76.67Z" fill="#E38524"></path>
                </g>
                <path d="m1107.042,508.45c10.828,0,21.15-4.97,27.9-13.615,7.543-9.66,9.553-22.535,5.313-34.035-2.003-5.433-48.969-129.802-57.91-152.847l-66.205,26.825c5.027,12.957,23.242,62.069,37.875,101.632l-24.311-2.642-7.652,70.391,81.159,4.084c1.281.139,2.559.207,3.831.207Z" fill="#E38524"></path>
                <rect x="997.859" y="439.315" width="139.309" height="1.289" transform="translate(591.31 1491.806) rotate(-88.04)" fill="#0c0c0c"></rect>
              </g>
            </g>
            <path d="m833.685,508.45c-10.828,0-21.15-4.97-27.9-13.615-7.543-9.66-9.553-22.535-5.313-34.035,2.003-5.433,50.937-130.35,59.877-153.395l64.238,27.373c-5.027,12.957-23.242,62.069-37.875,101.632l24.311-2.642,7.652,70.391-81.159,4.084c-1.281.139-2.559.207-3.831.207Z" fill="#E38524"></path>
            <path d="m886.56,428.154c-.071,0-.143-.011-.214-.033-.373-.118-.579-.517-.46-.889l17.187-54.107c.119-.372.516-.577.889-.46.373.118.579.517.46.889l-17.187,54.107c-.096.301-.374.494-.675.494Z" fill="#0c0c0c"></path>
          </g>
          <g>
            <g>
              <path d="m834.224,855.529l4.138,65.13-88.945.424s-4.533-16.348,16.312-23.326c11.59-3.88,19.155-16.923,16.79-33.016l51.704-9.212Z" fill="#383838"></path>
              <path d="m834.224,855.529l4.138,65.13-88.945.424s-4.533-16.348,16.312-23.326c11.59-3.88,19.155-16.923,16.79-33.016l51.704-9.212Z" fill="#070707" opacity=".17"></path>
            </g>
            <path d="m930.308,855.529l16.336,49.148-62.087,16.238-35.141.167s-4.533-16.348,16.312-23.326c11.59-3.88,15.239-16.923,12.874-33.016l51.704-9.212Z" fill="#383838"></path>
            <g fill="none" opacity=".75">
              <polygon points="936.462 561.987 843.441 894.744 766.127 874.187 850.661 539.173 936.462 561.987" fill="#fff"></polygon>
            </g>
            <polygon points="936.462 561.987 843.441 894.744 766.127 874.187 850.661 539.173 936.462 561.987" fill="#383838"></polygon>
            <g fill="none" opacity=".52">
              <polygon points="936.462 561.987 843.441 894.744 766.127 874.187 850.661 539.173 936.462 561.987" fill="#fff"></polygon>
            </g>
            <path d="m805.378,509.355c-27.051.052-48.891,22.11-48.676,49.159h0c.065,8.164,2.142,15.84,5.744,22.575l109.343,313.798,76-24.979-81.304-263.012h149.326c27.171,0,49.317-21.798,49.748-48.966l.778-49.077-260.96.501Z" fill="#383838"></path>
            <path d="m805.378,509.355c-27.051.052-48.891,22.11-48.676,49.159h0c.065,8.164,2.142,15.84,5.744,22.575l109.343,313.798,76-24.979-81.304-263.012h149.326c27.171,0,49.317-21.798,49.748-48.966l.778-49.077-260.96.501Z" fill="#fff" opacity=".64"></path>
          </g>
        </g>
        <g>
          <g>
            <polygon points="721.383 922.952 719.419 922.574 760.115 617.543 762.079 617.921 721.383 922.952" fill="#494949"></polygon>
            <polygon points="845.681 922.952 843.717 922.574 874.412 617.543 876.376 617.921 845.681 922.952" fill="#494949"></polygon>
          </g>
          <g>
            <path d="m886.376,483.428h195.247c6.603,0,12.182-4.899,13.035-11.447l12.915-99.18c1.024-7.867-5.101-14.842-13.035-14.842h-195.247c-6.603,0-12.182,4.899-13.035,11.447l-12.915,99.18c-1.024,7.867,5.101,14.842,13.035,14.842Z" fill="#fff"></path>
            <path d="m875.748,479.617c-2.685-3.058-3.924-7.125-3.398-11.16l12.915-99.18c.915-7.023,6.944-12.319,14.026-12.319h195.247c4.069,0,7.943,1.753,10.628,4.811s3.924,7.125,3.398,11.16l-12.915,99.18c-.915,7.022-6.944,12.318-14.026,12.318h-195.247c-4.069,0-7.943-1.753-10.628-4.811Zm23.543-120.658c-6.081,0-11.258,4.547-12.043,10.577l-12.915,99.18c-.451,3.464.612,6.957,2.918,9.582,2.305,2.625,5.631,4.131,9.125,4.131h195.247c6.081,0,11.258-4.547,12.043-10.576l12.915-99.18c.451-3.465-.612-6.958-2.918-9.583-2.305-2.625-5.631-4.131-9.125-4.131h-195.247Z" fill="#292a2e"></path>
          </g>
          <g>
            <rect x="748.298" y="607.897" width="220.99" height="19.671" rx="9.835" ry="9.835" transform="translate(1717.586 1235.464) rotate(180)" fill="#fff"></rect>
            <path d="m747.297,617.732c0-5.975,4.861-10.835,10.836-10.835h201.319c5.975,0,10.835,4.86,10.835,10.835,0,5.975-4.861,10.835-10.835,10.835h-201.319c-5.975,0-10.836-4.861-10.836-10.835Zm10.836-8.835c-4.872,0-8.836,3.963-8.836,8.835,0,4.872,3.964,8.835,8.836,8.835h201.319c4.872,0,8.835-3.963,8.835-8.835,0-4.872-3.963-8.835-8.835-8.835h-201.319Z" fill="#292a2e"></path>
          </g>
          <polygon points="1098.329 922.952 1100.293 922.574 1069.597 617.543 1067.633 617.921 1098.329 922.952" fill="#494949"></polygon>
          <polygon points="984.031 922.952 985.995 922.574 955.3 617.543 953.336 617.921 984.031 922.952" fill="#494949"></polygon>
          <rect x="810.662" y="549.58" width="135.496" height="2" transform="translate(216.415 1348.392) rotate(-82.395)" fill="#494949"></rect>
          <rect x="1016.486" y="549.58" width="135.496" height="2" transform="translate(394.998 1552.406) rotate(-82.395)" fill="#494949"></rect>
          <g>
            <rect x="858.793" y="607.897" width="220.99" height="19.671" rx="9.835" ry="9.835" transform="translate(1938.576 1235.464) rotate(-180)" fill="#292a2e"></rect>
            <rect x="858.793" y="607.897" width="220.99" height="19.671" rx="9.835" ry="9.835" transform="translate(1938.576 1235.464) rotate(-180)" fill="#fff" opacity=".8"></rect>
            <path d="m857.793,617.732c0-5.975,4.861-10.835,10.835-10.835h201.32c5.975,0,10.835,4.86,10.835,10.835,0,5.975-4.86,10.835-10.835,10.835h-201.32c-5.975,0-10.835-4.861-10.835-10.835Zm10.835-8.835c-4.872,0-8.835,3.963-8.835,8.835,0,4.872,3.963,8.835,8.835,8.835h201.32c4.872,0,8.835-3.963,8.835-8.835,0-4.872-3.963-8.835-8.835-8.835h-201.32Z" fill="#292a2e"></path>
          </g>
          <g>
            <path d="m897.417,483.428h195.247c6.603,0,12.182-4.899,13.035-11.447l12.915-99.18c1.024-7.867-5.101-14.842-13.035-14.842h-195.247c-6.603,0-12.182,4.899-13.035,11.447l-12.915,99.18c-1.024,7.867,5.101,14.842,13.035,14.842Z" fill="#292a2e"></path>
            <path d="m897.417,483.428h195.247c6.603,0,12.182-4.899,13.035-11.447l12.915-99.18c1.024-7.867-5.101-14.842-13.035-14.842h-195.247c-6.603,0-12.182,4.899-13.035,11.447l-12.915,99.18c-1.024,7.867,5.101,14.842,13.035,14.842Z" fill="#fff" opacity=".8"></path>
            <path d="m886.789,479.617c-2.685-3.058-3.924-7.125-3.398-11.16l12.915-99.18c.915-7.023,6.944-12.319,14.026-12.319h195.247c4.069,0,7.943,1.753,10.628,4.811,2.685,3.058,3.923,7.125,3.398,11.16l-12.915,99.18c-.915,7.022-6.944,12.318-14.026,12.318h-195.247c-4.069,0-7.943-1.753-10.628-4.811Zm23.543-120.658c-6.081,0-11.258,4.547-12.043,10.577l-12.915,99.18c-.451,3.464.612,6.957,2.918,9.582,2.305,2.625,5.631,4.131,9.125,4.131h195.247c6.081,0,11.258-4.547,12.043-10.576l12.915-99.18c.451-3.464-.612-6.957-2.917-9.582-2.305-2.625-5.631-4.131-9.125-4.131h-195.247Z" fill="#292a2e"></path>
          </g>
        </g>
      </g>
      <g>
        <path d="m.702,922.494h1120.419c.388,0,.702-.314.702-.702s-.314-.702-.702-.702H.702c-.388,0-.702.314-.702.702,0,.388.314.702.702.702Z" fill="#292a2e"></path>
        <g fill="none" opacity=".65">
          <path d="m.702,922.494h1120.419c.388,0,.702-.314.702-.702s-.314-.702-.702-.702H.702c-.388,0-.702.314-.702.702,0,.388.314.702.702.702Z" fill="#292a2e"></path>
        </g>
      </g>
    </g>
  </g>
</svg>