<svg id="Layer_2" data-name="Layer 2" xmlns="http://www.w3.org/2000/svg" viewBox="0 0 803.745 739.27" style="width: 100%; height: 100%;">
  <g id="Layer_1-2" data-name="Layer 1">
    <g>
      <g>
        <g>
          <g>
            <line x1="14.203" y1=".75" x2="188.823" y2=".75" fill="none" stroke="#b7b7b7" stroke-linecap="round" stroke-linejoin="round" stroke-width="1.5"></line>
            <line x1="14.203" y1="29.908" x2="188.823" y2="29.908" fill="none" stroke="#b7b7b7" stroke-linecap="round" stroke-linejoin="round" stroke-width="1.5"></line>
            <line x1="14.203" y1="59.065" x2="188.823" y2="59.065" fill="none" stroke="#b7b7b7" stroke-linecap="round" stroke-linejoin="round" stroke-width="1.5"></line>
            <line x1="14.203" y1="88.223" x2="188.823" y2="88.223" fill="none" stroke="#b7b7b7" stroke-linecap="round" stroke-linejoin="round" stroke-width="1.5"></line>
            <line x1="14.203" y1="117.381" x2="188.823" y2="117.381" fill="none" stroke="#b7b7b7" stroke-linecap="round" stroke-linejoin="round" stroke-width="1.5"></line>
            <line x1="14.203" y1="146.538" x2="188.823" y2="146.538" fill="none" stroke="#b7b7b7" stroke-linecap="round" stroke-linejoin="round" stroke-width="1.5"></line>
            <line x1="14.203" y1="175.696" x2="188.823" y2="175.696" fill="none" stroke="#b7b7b7" stroke-linecap="round" stroke-linejoin="round" stroke-width="1.5"></line>
            <line x1="14.203" y1="204.853" x2="188.823" y2="204.853" fill="none" stroke="#b7b7b7" stroke-linecap="round" stroke-linejoin="round" stroke-width="1.5"></line>
            <line x1="14.203" y1="234.011" x2="188.823" y2="234.011" fill="none" stroke="#b7b7b7" stroke-linecap="round" stroke-linejoin="round" stroke-width="1.5"></line>
          </g>
          <g>
            <line x1="189.312" y1=".75" x2="189.312" y2="234.011" fill="none" stroke="#b7b7b7" stroke-linecap="round" stroke-linejoin="round" stroke-width="1.5"></line>
            <line x1="160.154" y1=".75" x2="160.154" y2="234.011" fill="none" stroke="#b7b7b7" stroke-linecap="round" stroke-linejoin="round" stroke-width="1.5"></line>
            <line x1="130.996" y1=".75" x2="130.996" y2="234.011" fill="none" stroke="#b7b7b7" stroke-linecap="round" stroke-linejoin="round" stroke-width="1.5"></line>
            <line x1="101.839" y1=".75" x2="101.839" y2="234.011" fill="none" stroke="#b7b7b7" stroke-linecap="round" stroke-linejoin="round" stroke-width="1.5"></line>
            <line x1="72.681" y1=".75" x2="72.681" y2="234.011" fill="none" stroke="#b7b7b7" stroke-linecap="round" stroke-linejoin="round" stroke-width="1.5"></line>
            <line x1="43.524" y1=".75" x2="43.524" y2="234.011" fill="none" stroke="#b7b7b7" stroke-linecap="round" stroke-linejoin="round" stroke-width="1.5"></line>
            <line x1="14.366" y1=".75" x2="14.366" y2="234.011" fill="none" stroke="#b7b7b7" stroke-linecap="round" stroke-linejoin="round" stroke-width="1.5"></line>
          </g>
        </g>
        <rect x="56.927" y="49.431" width="37.799" height="37.799" transform="translate(-11.048 14.744) rotate(-10.356)" fill="#fff" stroke="#b7b7b7" stroke-linecap="round" stroke-linejoin="round" stroke-width="1.5"></rect>
        <g>
          <rect x="124.155" y="136.547" width="49.193" height="49.193" transform="translate(65.866 -41.894) rotate(20.503)" fill="#fff" stroke="#b7b7b7" stroke-linecap="round" stroke-linejoin="round" stroke-width="1.5"></rect>
          <polyline points="126.49 168.203 143.648 161.144 144.99 166.941 161.24 161.144 161.24 181.451" fill="#fff" stroke="#b7b7b7" stroke-linecap="round" stroke-linejoin="round" stroke-width="1.5"></polyline>
          <circle cx="151.141" cy="152.782" r="2.389" fill="#fff" stroke="#b7b7b7" stroke-linecap="round" stroke-linejoin="round" stroke-width="1.5"></circle>
        </g>
        <g>
          <line x1="60.171" y1="60.8" x2="77.854" y2="57.441" stroke="#b7b7b7" stroke-linecap="round" stroke-linejoin="round" stroke-width="1.5"></line>
          <line x1="61.276" y1="65.614" x2="85.191" y2="61.07" stroke="#b7b7b7" stroke-linecap="round" stroke-linejoin="round" stroke-width="1.5"></line>
          <line x1="62.416" y1="70.449" x2="88.264" y2="65.538" stroke="#b7b7b7" stroke-linecap="round" stroke-linejoin="round" stroke-width="1.5"></line>
          <line x1="63.292" y1="75.519" x2="83.725" y2="71.637" stroke="#b7b7b7" stroke-linecap="round" stroke-linejoin="round" stroke-width="1.5"></line>
        </g>
      </g>
      <g>
        <polygon points="92.445 738.108 46.078 738.108 38.713 585.169 99.81 585.169 92.445 738.108" fill="#fff" stroke="#000" stroke-linecap="round" stroke-linejoin="round" stroke-width="1.5"></polygon>
        <path d="m73.584,585.169s2.594-74.93,55.333-99.138c0,0,2.161,16.859-12.104,31.125-14.265,14.265-16.156,15.585-17.003,31.125-.648,11.888-10.465,15.142-15.851,14.698-1.807-.149-7.208-.796-7.208-.796" fill="#fff" stroke="#000" stroke-linecap="round" stroke-linejoin="round" stroke-width="1.5"></path>
        <path d="m64.886,585.711s-1.782-30.859-2.613-41.128c-2.289-28.291-18.559-73.035-61.506-95.431,0,0-1.088,16.962,14.053,30.295,15.141,13.332,17.956,14.453,18.942,29.984.987,15.531,16.75,13.663,16.75,13.663l7.628-.814s2.428,6.745,4.133,22.303" fill="#fff" stroke="#000" stroke-linecap="round" stroke-linejoin="round" stroke-width="1.5"></path>
        <path d="m69.262,585.169c0-5.187,1.153-107.207,20.75-145.248" fill="none" stroke="#000" stroke-linecap="round" stroke-linejoin="round" stroke-width="1.5"></path>
        <circle cx="90.011" cy="440.242" r="7.493" fill="#fff" stroke="#000" stroke-linecap="round" stroke-linejoin="round" stroke-width="1.5"></circle>
      </g>
      <line x1="2.43" y1="738.52" x2="798.119" y2="738.52" fill="none" stroke="#000" stroke-linecap="round" stroke-linejoin="round" stroke-width="1.5"></line>
      <g>
        <rect x="116.471" y="44.783" width="567.894" height="426.778" fill="#fff" stroke="#E38524" stroke-linecap="round" stroke-linejoin="round" stroke-width="1.5"></rect>
        <g>
          <rect x="343.535" y="227.958" width="107.666" height="77.821" rx="9.597" ry="9.597" fill="#fff" stroke="#000" stroke-linecap="round" stroke-linejoin="round" stroke-width="1.5"></rect>
          <path d="m451.2,256.434h-107.666v-18.879c0-5.3,4.297-9.597,9.597-9.597h88.471c5.3,0,9.597,4.297,9.597,9.597v18.879Z" fill="#fff" stroke="#000" stroke-linecap="round" stroke-linejoin="round" stroke-width="1.5"></path>
          <g>
            <rect x="366.08" y="251.51" width="7.002" height="12.601" fill="#E38524" stroke="#000" stroke-linecap="round" stroke-linejoin="round" stroke-width="1.5"></rect>
            <rect x="421.652" y="251.51" width="7.002" height="12.601" fill="#E38524" stroke="#000" stroke-linecap="round" stroke-linejoin="round" stroke-width="1.5"></rect>
          </g>
          <path d="m385.684,211.438h23.368c4.089,0,7.408,3.319,7.408,7.408v9.112h-38.184v-9.112c0-4.089,3.319-7.408,7.408-7.408Z" fill="#fff" stroke="#000" stroke-linecap="round" stroke-linejoin="round" stroke-width="1.5"></path>
          <path d="m387.075,215.929h20.585c2.009,0,3.641,1.631,3.641,3.641v8.415h-27.866v-8.415c0-2.009,1.631-3.641,3.641-3.641Z" fill="#fff" stroke="#000" stroke-linecap="round" stroke-linejoin="round" stroke-width="1.5"></path>
          <g>
            <path d="m426.519,306.929l-.933-4.965c-.26-1.386.652-2.721,2.038-2.982l2.339-.44c1.014-.191,1.813-.974,2.024-1.984.002-.011.005-.022.007-.033.214-1.011-.201-2.051-1.054-2.634l-1.965-1.343c-1.164-.796-1.463-2.385-.667-3.55l2.851-4.17c.796-1.164,2.385-1.463,3.55-.667l1.965,1.343c.853.583,1.972.593,2.837.026.009-.006.019-.012.028-.019.865-.564,1.305-1.592,1.114-2.606l-.44-2.339c-.26-1.386.652-2.721,2.038-2.982l4.965-.933c1.386-.26,2.721.652,2.982,2.038l.44,2.339c.191,1.014.974,1.813,1.984,2.024.011.002.022.005.033.007,1.011.214,2.051-.201,2.634-1.054l1.343-1.965c.796-1.164,2.385-1.463,3.55-.667l4.17,2.851c1.164.796,1.463,2.385.667,3.55l-1.343,1.965c-.583.853-.593,1.973-.026,2.837.006.009.012.019.019.028.564.865,1.592,1.305,2.606,1.114l2.339-.44c1.386-.26,2.721.652,2.982,2.038l.933,4.965c.26,1.386-.652,2.721-2.038,2.982l-2.339.44c-1.014.191-1.813.974-2.024,1.984-.002.011-.005.022-.007.033-.214,1.011.201,2.051,1.054,2.634l1.965,1.343c1.164.796,1.463,2.385.667,3.55l-2.851,4.17c-.796,1.164-2.385,1.463-3.55.667l-1.965-1.343c-.853-.583-1.972-.593-2.837-.026-.009.006-.019.012-.028.019-.865.564-1.305,1.592-1.114,2.606l.44,2.339c.26,1.386-.652,2.721-2.038,2.982l-4.965.933c-1.386.26-2.721-.652-2.982-2.038l-.44-2.339c-.191-1.014-.974-1.813-1.984-2.024-.011-.002-.022-.005-.033-.007-1.011-.214-2.051.201-2.634,1.054l-1.343,1.965c-.796,1.164-2.385,1.463-3.55.667l-4.17-2.851c-1.164-.796-1.463-2.385-.667-3.55l1.343-1.965c.583-.853.593-1.972.026-2.837-.006-.009-.012-.019-.019-.028-.564-.865-1.592-1.305-2.606-1.114l-2.339.44c-1.386.26-2.721-.652-2.982-2.038Z" fill="#E38524" stroke="#000" stroke-linecap="round" stroke-linejoin="round" stroke-width="1.5"></path>
            <circle cx="449.058" cy="300.124" r="10.571" fill="#fff" stroke="#000" stroke-linecap="round" stroke-linejoin="round" stroke-width="1.5"></circle>
          </g>
        </g>
        <g>
          <path d="m230.072,212.012c-6.762-11.96-10.622-25.778-10.622-40.497,0-45.508,36.891-82.399,82.399-82.399,25.683,0,48.622,11.75,63.734,30.169" fill="none" stroke="#000" stroke-dasharray="0 12" stroke-linecap="round" stroke-linejoin="round" stroke-width="1.5"></path>
          <path d="m388.657,129.25c5.469-12.604,14.17-24.011,25.917-32.881,36.316-27.424,87.988-20.215,115.412,16.101,15.477,20.496,19.923,45.883,14.332,69.041" fill="none" stroke="#000" stroke-dasharray="0 12" stroke-linecap="round" stroke-linejoin="round" stroke-width="1.5"></path>
          <path d="m313.933,398.234c-12.252,6.217-26.23,9.451-40.934,8.788-45.461-2.048-80.655-40.563-78.606-86.024,1.156-25.657,13.927-48.044,33.007-62.311" fill="none" stroke="#000" stroke-dasharray="0 12" stroke-linecap="round" stroke-linejoin="round" stroke-width="1.5"></path>
          <path d="m521.573,348.177c.123,16.496-3.884,33.249-12.467,48.698-26.537,47.763-86.769,64.97-134.532,38.433-26.956-14.977-44.18-40.686-49.3-68.829" fill="none" stroke="#000" stroke-dasharray="0 12" stroke-linecap="round" stroke-linejoin="round" stroke-width="1.5"></path>
          <path d="m560.8,176.843c13.554,2.248,26.731,7.921,38.187,17.165,35.416,28.577,40.959,80.454,12.382,115.87-16.128,19.988-39.678,30.461-63.501,30.655" fill="none" stroke="#000" stroke-dasharray="0 12" stroke-linecap="round" stroke-linejoin="round" stroke-width="1.5"></path>
        </g>
        <g>
          <g>
            <path d="m270.891,199.402c0-22.523-18.777-40.66-41.531-39.612-20.153.928-36.577,17.17-37.715,37.312-.616,10.9,3.175,20.911,9.754,28.417,8.47,9.664,12.884,22.228,12.884,35.078v1.28h33.906v-2.037c0-12.515,4.355-24.739,12.677-34.087,6.236-7.004,10.026-16.234,10.026-26.351Z" fill="#fff" stroke="#000" stroke-linecap="round" stroke-linejoin="round" stroke-width="1.5"></path>
            <path d="m248.189,261.877c0,9.363-7.59,16.953-16.953,16.953s-16.953-7.59-16.953-16.953h33.906Z" fill="#E38524" stroke="#000" stroke-linecap="round" stroke-linejoin="round" stroke-width="1.5"></path>
            <path d="m225.359,261.936v-54.442c0-3.279-2.658-5.938-5.938-5.938s-5.938,2.658-5.938,5.938,2.658,5.938,5.938,5.938h23.629c3.279,0,5.938-2.658,5.938-5.938s-2.658-5.938-5.938-5.938-5.938,2.658-5.938,5.938v54.442" fill="none" stroke="#000" stroke-linecap="round" stroke-linejoin="round" stroke-width="1.5"></path>
          </g>
          <g>
            <path d="m357.087,141.767l-1.309-6.967c-.366-1.945.915-3.819,2.86-4.184l3.283-.617c1.424-.267,2.544-1.366,2.84-2.784.003-.016.007-.031.01-.047.3-1.419-.282-2.878-1.48-3.697l-2.758-1.885c-1.634-1.117-2.053-3.347-.936-4.981l4.001-5.852c1.117-1.634,3.347-2.053,4.981-.936l2.758,1.885c1.198.819,2.768.832,3.982.037.013-.009.027-.017.04-.026,1.213-.791,1.831-2.234,1.563-3.657l-.617-3.283c-.366-1.945.915-3.819,2.86-4.184l6.967-1.309c1.945-.366,3.819.915,4.184,2.86l.617,3.283c.267,1.424,1.366,2.544,2.784,2.84.015.003.031.007.046.01,1.419.3,2.878-.282,3.697-1.48l1.885-2.758c1.117-1.634,3.347-2.053,4.981-.936l5.852,4.001c1.634,1.117,2.053,3.347.936,4.981l-1.885,2.758c-.819,1.198-.832,2.768-.037,3.982.009.013.017.027.026.04.791,1.213,2.234,1.831,3.657,1.563l3.283-.617c1.945-.366,3.819.915,4.184,2.86l1.309,6.967c.366,1.945-.915,3.819-2.86,4.184l-3.283.617c-1.424.267-2.544,1.366-2.84,2.784-.003.016-.007.031-.01.046-.3,1.419.282,2.878,1.48,3.697l2.758,1.885c1.634,1.117,2.053,3.347.936,4.981l-4.001,5.852c-1.117,1.634-3.347,2.053-4.981.936l-2.758-1.885c-1.198-.819-2.768-.832-3.982-.037-.013.009-.026.017-.04.026-1.213.791-1.831,2.234-1.563,3.657l.617,3.283c.366,1.945-.915,3.819-2.86,4.184l-6.967,1.309c-1.945.366-3.819-.915-4.184-2.86l-.617-3.283c-.267-1.424-1.366-2.544-2.784-2.84-.016-.003-.031-.007-.046-.01-1.419-.3-2.878.282-3.697,1.48l-1.885,2.758c-1.117,1.634-3.347,2.053-4.981.936l-5.852-4.001c-1.634-1.117-2.053-3.347-.936-4.981l1.885-2.758c.819-1.198.832-2.768.037-3.982-.009-.013-.017-.027-.026-.04-.791-1.213-2.234-1.831-3.657-1.563l-3.283.617c-1.945.366-3.819-.915-4.184-2.86Z" fill="#fff" stroke="#000" stroke-linecap="round" stroke-linejoin="round" stroke-width="1.5"></path>
            <circle cx="388.716" cy="132.218" r="14.835" fill="#fff" stroke="#000" stroke-linecap="round" stroke-linejoin="round" stroke-width="1.5"></circle>
          </g>
          <g>
            <path d="m316.923,104.86l-.773-4.116c-.216-1.149.541-2.256,1.69-2.472l1.94-.364c.841-.158,1.503-.807,1.678-1.645.002-.009.004-.018.006-.027.177-.838-.167-1.7-.874-2.184l-1.629-1.114c-.965-.66-1.213-1.977-.553-2.943l2.363-3.457c.66-.965,1.977-1.213,2.943-.553l1.629,1.114c.707.484,1.635.491,2.352.022.008-.005.016-.01.023-.015.717-.467,1.082-1.32.924-2.161l-.364-1.94c-.216-1.149.541-2.256,1.69-2.472l4.116-.773c1.149-.216,2.256.541,2.472,1.69l.364,1.94c.158.841.807,1.503,1.645,1.678.009.002.018.004.027.006.838.177,1.7-.167,2.184-.874l1.114-1.629c.66-.965,1.977-1.213,2.943-.553l3.457,2.363c.965.66,1.213,1.977.553,2.943l-1.114,1.629c-.484.708-.491,1.635-.022,2.352.005.008.01.016.015.023.467.717,1.32,1.082,2.161.923l1.94-.364c1.149-.216,2.256.541,2.472,1.69l.773,4.116c.216,1.149-.541,2.256-1.69,2.472l-1.94.364c-.841.158-1.503.807-1.678,1.645-.002.009-.004.018-.006.027-.177.839.167,1.7.874,2.184l1.629,1.114c.965.66,1.213,1.977.553,2.943l-2.364,3.457c-.66.965-1.977,1.213-2.943.553l-1.629-1.114c-.707-.484-1.635-.491-2.352-.022-.008.005-.016.01-.023.015-.717.467-1.082,1.32-.924,2.161l.364,1.94c.216,1.149-.541,2.256-1.69,2.472l-4.116.773c-1.149.216-2.256-.541-2.472-1.69l-.364-1.94c-.158-.841-.807-1.503-1.645-1.678-.009-.002-.018-.004-.027-.006-.838-.177-1.7.167-2.184.874l-1.114,1.629c-.66.965-1.977,1.213-2.943.553l-3.457-2.363c-.965-.66-1.213-1.977-.553-2.943l1.114-1.629c.484-.707.491-1.635.022-2.352-.005-.008-.01-.016-.015-.024-.467-.717-1.32-1.082-2.161-.924l-1.94.364c-1.149.216-2.256-.541-2.472-1.69Z" fill="#E38524" stroke="#000" stroke-linecap="round" stroke-linejoin="round" stroke-width="1.5"></path>
            <circle cx="335.608" cy="99.218" r="8.764" fill="#fff" stroke="#000" stroke-linecap="round" stroke-linejoin="round" stroke-width="1.5"></circle>
          </g>
          <g>
            <path d="m354.047,405.36c-1.974,4.606-4.684,8.648-7.974,12.063-11.295,11.797-29.154,15.995-45.071,9.18-5.154-2.209-9.619-5.358-13.269-9.18-10.872-11.342-14.554-28.496-7.974-43.849,8.773-20.523,32.522-30.032,53.029-21.259,20.523,8.773,30.032,32.522,21.259,53.045Z" fill="#fff" stroke="#000" stroke-linecap="round" stroke-linejoin="round" stroke-width="1.5"></path>
            <circle cx="316.899" cy="371.897" r="13.385" fill="#fff" stroke="#000" stroke-linecap="round" stroke-linejoin="round" stroke-width="1.5"></circle>
            <path d="m346.072,417.423c-11.295,11.797-29.154,15.995-45.071,9.18-5.154-2.209-9.619-5.358-13.269-9.18,2.287-14.052,14.475-24.768,29.17-24.768s26.883,10.716,29.17,24.768Z" fill="#fff" stroke="#000" stroke-linecap="round" stroke-linejoin="round" stroke-width="1.5"></path>
          </g>
          <g>
            <g>
              <polyline points="574.781 211.504 574.781 142.218 514.529 142.218 514.529 211.504" fill="#fff" stroke="#000" stroke-linecap="round" stroke-linejoin="round" stroke-width="1.5"></polyline>
              <path d="m574.781,153.479c0,7.602-13.488,13.765-30.126,13.765s-30.126-6.163-30.126-13.765" fill="none" stroke="#000" stroke-linecap="round" stroke-linejoin="round" stroke-width="1.5"></path>
              <path d="m574.781,165.046c0,7.602-13.488,13.765-30.126,13.765s-30.126-6.163-30.126-13.765" fill="none" stroke="#000" stroke-linecap="round" stroke-linejoin="round" stroke-width="1.5"></path>
              <path d="m574.781,176.612c0,7.602-13.488,13.765-30.126,13.765s-30.126-6.163-30.126-13.765" fill="none" stroke="#000" stroke-linecap="round" stroke-linejoin="round" stroke-width="1.5"></path>
              <path d="m574.781,188.178c0,7.602-13.488,13.765-30.126,13.765s-30.126-6.163-30.126-13.765" fill="none" stroke="#000" stroke-linecap="round" stroke-linejoin="round" stroke-width="1.5"></path>
              <path d="m574.781,199.745c0,7.602-13.488,13.765-30.126,13.765s-30.126-6.163-30.126-13.765" fill="none" stroke="#000" stroke-linecap="round" stroke-linejoin="round" stroke-width="1.5"></path>
              <path d="m574.781,210.588c0,7.602-13.488,13.765-30.126,13.765s-30.126-6.163-30.126-13.765" fill="none" stroke="#000" stroke-linecap="round" stroke-linejoin="round" stroke-width="1.5"></path>
              <ellipse cx="544.655" cy="142.218" rx="30.126" ry="13.765" fill="#fff" stroke="#000" stroke-linecap="round" stroke-linejoin="round" stroke-width="1.5"></ellipse>
            </g>
            <g>
              <circle cx="544.326" cy="113.1" r="30.455" fill="#fff" stroke="#000" stroke-linecap="round" stroke-linejoin="round" stroke-width="1.5"></circle>
              <circle cx="544.326" cy="113.1" r="25.08" fill="#fff" stroke="#000" stroke-linecap="round" stroke-linejoin="round" stroke-width="1.5"></circle>
              <text transform="translate(535.268 125.835)" font-family="SourceSansPro-Light, 'Source Sans Pro'" font-size="38.837" font-weight="300"><tspan x="0" y="0">$</tspan></text>
            </g>
          </g>
          <circle cx="539.154" cy="355.347" r="43.957" fill="#fff" stroke="#000" stroke-linecap="round" stroke-linejoin="round" stroke-width="1.5"></circle>
          <circle cx="539.154" cy="355.347" r="32.315" fill="#E38524" stroke="#000" stroke-linecap="round" stroke-linejoin="round" stroke-width="1.5"></circle>
          <circle cx="539.154" cy="355.347" r="19.74" fill="#fff" stroke="#000" stroke-linecap="round" stroke-linejoin="round" stroke-width="1.5"></circle>
          <circle cx="539.154" cy="355.347" r="9.355" fill="#E38524" stroke="#000" stroke-linecap="round" stroke-linejoin="round" stroke-width="1.5"></circle>
          <line x1="539.154" y1="355.347" x2="583.111" y2="399.304" fill="#fff" stroke="#000" stroke-linecap="round" stroke-linejoin="round" stroke-width="1.5"></line>
          <polygon points="580.42 395.415 580.42 403.718 585.338 409.004 587.388 402.209 594.783 401.044 588.475 394.833 580.42 395.415" fill="#E38524" stroke="#000" stroke-linecap="round" stroke-linejoin="round" stroke-width="1.5"></polygon>
        </g>
      </g>
      <g>
        <path id="l" d="m670.803,736.654h52.13s4.893-6.116,4.893-6.116c0,0,1.258,3.349,2.455,6.116h12.345s-1.113-31.327-1.113-31.327l-40.504-.833s-4.009,15.963-16.554,17.004c-19.797,1.648-13.653,15.156-13.653,15.156Z" fill="#fff" stroke="#000" stroke-linecap="round" stroke-linejoin="round" stroke-width="1.5"></path>
        <path id="l-2" data-name="l" d="m577.742,736.654h51.179s4.893-6.116,4.893-6.116c0,0,1.258,3.349,2.455,6.116h12.345s-.162-31.327-.162-31.327l-37.651-.833s-6.862,15.963-19.407,17.004c-19.797,1.648-13.653,15.156-13.653,15.156Z" fill="#fff" stroke="#000" stroke-linecap="round" stroke-linejoin="round" stroke-width="1.5"></path>
        <path id="l-3" data-name="l" d="m617.087,349.402l-29.469,159.904c-1.297,5.101-1.505,10.418-.611,15.605l11.697,185.035,57.396-.597-7.023-188.357,19.224-69.952,24.764,259.855,53.679-.834-15.411-360.793-114.246.134Z" fill="#E38524" stroke="#000" stroke-linecap="round" stroke-linejoin="round" stroke-width="1.5"></path>
        <line id="st" x1="668.301" y1="451.04" x2="664.511" y2="413.911" fill="none" stroke="#000" stroke-linecap="round" stroke-linejoin="round" stroke-width="1.5"></line>
        <path id="h_2" d="m724.261,199.641c-4.002-10.633-13.129-11.471-15.097-18.522-1.968-7.051-4.572-30.441-4.572-30.441-4.079-19.611-17.32-33.099-36.964-33.133-19.644-.035-35.418,17.033-35.454,37.064,0,0,.839,23.931.735,32.951-.104,9.02-8.537,15.743-7.417,27.41,1.12,11.667,8.931,16.799,14.055,18.089,11.656,2.935,55.22.362,74.078-7.58,18.009-7.584,10.636-25.837,10.636-25.837Z" fill="#E38524" stroke="#000" stroke-miterlimit="10" stroke-width="1.5"></path>
        <path id="h_2_h" d="m687.988,174.472c4.263-.066,7.658-3.639,7.582-7.98-.072-4.154-3.299-7.498-7.313-7.721-3.18-13.966-14.716-24.468-29.353-24.241-11.005.171-14.917,6.173-20.117,15.16-2.752,4.755-1.956,32.643,1.756,38.626,2.482,4.001,6.925,6.686,14.085,7.863l.347,16.244s-.938,15.684,16.108,14.859c17.29-.836,17.118-16.024,17.118-16.024,0,0-.501-34.693-.361-36.793.05,0,.098.006.148.005Z" fill="#fffdfd" stroke="#000" stroke-linecap="round" stroke-linejoin="round" stroke-width="1.5"></path>
        <path id="h_2_sh" d="m669.151,193.229l-14.212,16.144-.31-13.194s4.642.419,8.92-.812,5.602-2.138,5.602-2.138Z" stroke="#000" stroke-linecap="round" stroke-linejoin="round" stroke-width="1.5"></path>
        <path id="h_2-2" data-name="h_2" d="m688.257,158.771s-6.061-.83-13.355-4.832c-6.088-3.341-11.188-10.198-13.913-14.695-3.479,5.728-11.308,15.049-27.039,19.552l4.506-20.489,41.649-13.277,10.329,31.397-2.176,2.344Z" fill="#E38524"></path>
        <path id="h_2-3" data-name="h_2" d="m636.179,158.109c14.249-4.71,21.499-13.415,24.809-18.865,2.725,4.498,7.886,11.245,13.913,14.695,6.386,3.656,10.889,4.494,12.635,4.72.407.053,1.346.174,1.346.174" fill="none" stroke="#000" stroke-linecap="round" stroke-linejoin="round" stroke-width="1.5"></path>
        <line id="h_2-4" data-name="h_2" x1="660.989" y1="139.244" x2="662.064" y2="126.928" fill="none" stroke="#000" stroke-linecap="round" stroke-linejoin="round" stroke-width="1.5"></line>
        <g id="e_1_eye">
          <path d="m663.905,162.057l-.014-.134c.008-.207-.035-.399-.129-.578-.06-.186-.164-.347-.31-.483-.136-.146-.297-.25-.483-.31-.179-.094-.371-.137-.578-.129l-.399.054c-.254.071-.475.2-.662.386l-.235.304c-.136.234-.204.486-.205.757l.014.134c-.008.207.035.399.129.578.06.186.164.347.31.483.136.146.297.25.483.31.179.094.371.137.578.129l.399-.054c.254-.071.475-.2.662-.386l.235-.304c.136-.234.204-.486.205-.757h0Z"></path>
        </g>
        <g id="e_1_eye-2" data-name="e_1_eye">
          <path d="m647.842,163.114l-.014-.134c.008-.207-.035-.399-.129-.578-.06-.186-.164-.347-.31-.483-.136-.146-.297-.25-.483-.31-.179-.094-.371-.137-.578-.129l-.399.054c-.254.071-.475.2-.662.386l-.235.304c-.136.234-.204.486-.205.757l.014.134c-.008.207.035.399.129.578.06.186.164.347.31.483.136.146.297.25.483.31.179.094.371.137.578.129l.399-.054c.254-.071.475-.2.662-.386l.235-.304c.136-.234.204-.486.205-.757h0Z"></path>
        </g>
        <path id="e_1_st" d="m651.064,169.166l-.803,3.797c-.148.701.46,1.33,1.162,1.202l3.336-.612" fill="none" stroke="#000" stroke-linecap="round" stroke-linejoin="round" stroke-width="1.5"></path>
        <path id="e_1_st-2" data-name="e_1_st" d="m659.272,155.708s4.795-1.69,7.263,1.503" fill="none" stroke="#000" stroke-linecap="round" stroke-linejoin="round" stroke-width="1.5"></path>
        <path id="e_1_st-3" data-name="e_1_st" d="m665.005,177.1s-1.438,5.225-8.004,4.351" fill="none" stroke="#000" stroke-linecap="round" stroke-linejoin="round" stroke-width="1.5"></path>
        <path id="e_1_st-4" data-name="e_1_st" d="m640.931,159.007s3.379-3.375,7.117-1.883" fill="none" stroke="#000" stroke-linecap="round" stroke-linejoin="round" stroke-width="1.5"></path>
        <g id="ha">
          <path id="sk" d="m439.788,163.259c.144.852,1.291,3.099,3.077,5.723l-.015-.017c-1.791-1.501-2.396-.186-2.438.526-.264,4.546,4.627,10.07,14.01,18.39,5.441,4.824,19.163,14.491,19.163,14.491l23.956-14.955s-16.466-13.02-21.682-17.672c-5.153-4.595-8.816-10.231-11.144-9.599-2.142.582-.871,4.224,1.447,8.147l.359.219-.118.006c-4.399-2.869-10.447-6.907-16.811-11.441-.778-.554-3.734-.701-2.15,2.792l-.038-.068c-2.288-2.477-4.581-3.988-5.192-1.709-.257.961.493,2.724,1.113,3.988-2.012-1.909-3.858-.719-3.537,1.179Z" fill="#fffdfd"></path>
          <path id="st-2" data-name="st" d="m473.585,202.372s-13.722-9.667-19.163-14.491c-9.383-8.32-14.275-13.844-14.01-18.39.041-.711.646-2.027,2.438-.526" fill="none" stroke="#000" stroke-linecap="round" stroke-linejoin="round" stroke-width="1.5"></path>
          <path id="st-3" data-name="st" d="m497.542,187.417s-16.466-13.02-21.683-17.672c-5.153-4.595-8.816-10.231-11.144-9.599-2.142.582-.871,4.224,1.447,8.147" fill="none" stroke="#000" stroke-linecap="round" stroke-linejoin="round" stroke-width="1.5"></path>
          <path id="st-4" data-name="st" d="m452.837,179.254c-6.835-4.25-12.709-13.987-13.049-15.995-.322-1.9,1.527-3.09,3.54-1.176" fill="none" stroke="#000" stroke-linecap="round" stroke-linejoin="round" stroke-width="1.5"></path>
          <path id="st-5" data-name="st" d="m456.131,175.372c-5.627-4.015-10.383-8.608-12.429-12.543-.62-1.192-1.804-3.566-1.491-4.736.611-2.279,2.903-.768,5.192,1.709" fill="none" stroke="#000" stroke-linecap="round" stroke-linejoin="round" stroke-width="1.5"></path>
          <path id="st-6" data-name="st" d="m473.319,172.944s-11.265-6.989-23.728-15.866c-.798-.568-3.899-.719-2.034,3.054,2.358,4.769,12.142,10.822,12.142,10.822" fill="none" stroke="#000" stroke-linecap="round" stroke-linejoin="round" stroke-width="1.5"></path>
        </g>
        <path id="bl" d="m732.603,251.311c.437,9.663-1.151,98.328-1.151,98.328l-114.449-.333,2.045-82.646-31.08,10.233-45.089,13.828-.875.276c-9.063,2.758-19.249-.437-24.974-8.626l-57.747-82.57,31.679-24.004,53.201,64.928s52.488-17.813,71.347-23.966c4.451-1.455,10.709-3.937,22.939-3.937l16.52-.181,14.875,8.862,18.298-9.224,24.337-.266c38.688-1.35,20.096,38.622,20.124,39.297Z"></path>
        <polygon id="b" points="688.675 205.349 693.694 212.571 679.854 233.841 669.844 221.504 688.675 205.349" fill="#fdfdff" stroke="#000" stroke-linecap="round" stroke-linejoin="round" stroke-width="1.5"></polygon>
        <polygon id="b-2" data-name="b" points="669.844 221.504 659.218 232.72 649.375 213.232 654.453 206.538 669.844 221.504" fill="#fdfdff" stroke="#000" stroke-linecap="round" stroke-linejoin="round" stroke-width="1.5"></polygon>
        <g id="ha-2" data-name="ha">
          <path id="sk-2" data-name="sk" d="m730.485,334.363l-5.595,2.464-2.774,1.411c-6.605-.335-13.894-1.917-14.669.231-.461,1.278,2.247,2.797,5.545,4.078,0,0-2.021,1.183-2.457,1.505-8.698,6.415-15.588,17.613-14.733,19.304.404.8,1.191,1.346,2.412.756.316-.153.636-.354.957-.577-1.6,2.542-2.505,4.643-1.554,5.577,1.259,1.236,2.599.782,3.975-.465-.057.341-.036.619.082.815,1.742,2.89,4.659.144,6.773-2.787.103-.143.251-.327.42-.529-.354.787-.574,1.426-.629,1.802-.343,2.313,2.83,2.741,4.779-.275,6.911-10.696,19.915-6.549,38.595-24.205l-21.127-9.104Z" fill="#fffdfd" stroke="#000" stroke-linecap="round" stroke-linejoin="round" stroke-width="1.5"></path>
          <path id="st-7" data-name="st" d="m699.285,363.354c1.18-1.853,2.596-4.015,4.156-5.952,4.618-5.731,6.574-7.516,8.903-9.095" fill="#feffff" stroke="#000" stroke-linecap="round" stroke-linejoin="round" stroke-width="1.5"></path>
          <path id="st-8" data-name="st" d="m714.924,352.584s-.94.554-2.644,1.964c-2.905,2.405-10.566,11.435-10.716,14.344" fill="#feffff" stroke="#000" stroke-linecap="round" stroke-linejoin="round" stroke-width="1.5"></path>
          <path id="st-9" data-name="st" d="m717.604,356.111s-3.015,2.156-4.373,3.552c-2.114,2.173-3.729,4.981-4.503,6.799" fill="#feffff" stroke="#000" stroke-linecap="round" stroke-linejoin="round" stroke-width="1.5"></path>
        </g>
        <path id="bl-2" data-name="bl" d="m745.658,355.9l51.886-55.686c.799-.864,1.631-1.892,2.308-2.9,7.056-10.511,4.256-24.751-6.254-31.808l-.755-.507-61.96-48.435c-10.872-7.299-20.723-.572-28.022,10.3-7.299,10.872-4.403,21.717,6.469,29.016l45.044,34.126-33.453,41.582,24.737,24.311Z"></path>
        <polyline id="st-10" data-name="st" points="732.111 317.699 720.881 331.726 725.343 336.282" fill="none" stroke="#feffff" stroke-linecap="round" stroke-linejoin="round" stroke-width="1.5"></polyline>
        <line id="st-11" data-name="st" x1="619.046" y1="266.66" x2="619.046" y2="249.683" fill="none" stroke="#feffff" stroke-linecap="round" stroke-linejoin="round" stroke-width="1.5"></line>
        <line id="st-12" data-name="st" x1="724.994" y1="267.635" x2="732.48" y2="273.226" fill="none" stroke="#feffff" stroke-linecap="round" stroke-linejoin="round" stroke-width="1.5"></line>
      </g>
    </g>
  </g>
</svg>